  0
SECTION
  2
HEADER
  9
$ACADVER
  1
AC1015
  9
$HANDSEED
  5
FFFF
  9
$INSUNITS
 70
1
  9
$DIMEXE
 40
0.18
  9
$TEXTSTYLE
  7
Standard
  9
$TEXTSTYLE
  7
Roman
  9
$LIMMIN
 10
0.0
 20
0.0
  0
ENDSEC
  0
SECTION
  2
TABLES
  0
TABLE
  2
VPORT
  5
8
100
AcDbSymbolTable
 70
1
  0
VPORT
  5
30
100
AcDbSymbolTableRecord
100
AcDbViewportTableRecord
  2
*Active
 70
0
 10
0.0
 20
0.0
 11
1.0
 21
1.0
 12
286.30555555555549
 22
148.5
 13
0.0
 23
0.0
 14
0.0
 24
0.0
 15
10.0
 25
10.0
 16
0.0
 26
0.0
 36
1.0
 17
0.0
 27
0.0
 37
0.0
 40
297.0
 41
1.92798353909465
 42
50.0
 43
0.0
 44
0.0
 50
0.0
 51
0.0
 71
0
 72
100
 73
1
 74
3
 75
1
 76
1
 77
0
 78
0
281
0
 65
1
110
0.0
120
0.0
130
0.0
111
1.0
121
0.0
131
0.0
112
0.0
122
1.0
132
0.0
 79
0
146
0.0
  0
ENDTAB
  0
TABLE
  2
LTYPE
  5
5
100
AcDbSymbolTable
 70
25
  0
LTYPE
  5
14
100
AcDbSymbolTableRecord
100
AcDbLinetypeTableRecord
  2
BYBLOCK
 70
0
  3

 72
65
 73
0
 40
0.0
  0
LTYPE
  5
15
100
AcDbSymbolTableRecord
100
AcDbLinetypeTableRecord
  2
BYLAYER
 70
0
  3

 72
65
 73
0
 40
0.0
  0
LTYPE
  5
16
100
AcDbSymbolTableRecord
100
AcDbLinetypeTableRecord
  2
CONTINUOUS
 70
0
  3
Solid line
 72
65
 73
0
 40
0.0
  0
LTYPE
  5
31
100
AcDbSymbolTableRecord
100
AcDbLinetypeTableRecord
  2
ACAD_ISO02W100
 70
0
  3
ISO Dashed __ __ __ __ __ __ __ __ __ __ _
 72
65
 73
2
 40
15.0
 49
12.0
 74
0
 49
-3.0
 74
0
  0
LTYPE
  5
32
100
AcDbSymbolTableRecord
100
AcDbLinetypeTableRecord
  2
ACAD_ISO03W100
 70
0
  3
ISO Dashed with Distance __    __    __    _
 72
65
 73
2
 40
30.0
 49
12.0
 74
0
 49
-18.0
 74
0
  0
LTYPE
  5
33
100
AcDbSymbolTableRecord
100
AcDbLinetypeTableRecord
  2
ACAD_ISO04W100
 70
0
  3
ISO Long Dashed Dotted ____ . ____ . __
 72
65
 73
4
 40
30.0
 49
24.0
 74
0
 49
-3.0
 74
0
 49
0.0
 74
0
 49
-3.0
 74
0
  0
LTYPE
  5
34
100
AcDbSymbolTableRecord
100
AcDbLinetypeTableRecord
  2
ACAD_ISO05W100
 70
0
  3
ISO Long Dashed Double Dotted ____ .. __
 72
65
 73
6
 40
33.0
 49
24.0
 74
0
 49
-3.0
 74
0
 49
0.0
 74
0
 49
-3.0
 74
0
 49
0.0
 74
0
 49
-3.0
 74
0
  0
LTYPE
  5
35
100
AcDbSymbolTableRecord
100
AcDbLinetypeTableRecord
  2
BORDER
 70
0
  3
Border __ __ . __ __ . __ __ . __ __ . __ __ .
 72
65
 73
6
 40
44.450000000000003
 49
12.699999999999999
 74
0
 49
-6.3499999999999996
 74
0
 49
12.699999999999999
 74
0
 49
-6.3499999999999996
 74
0
 49
0.0
 74
0
 49
-6.3499999999999996
 74
0
  0
LTYPE
  5
36
100
AcDbSymbolTableRecord
100
AcDbLinetypeTableRecord
  2
BORDER2
 70
0
  3
Border (.5x) __.__.__.__.__.__.__.__.__.__.__.
 72
65
 73
6
 40
22.225000000000001
 49
6.3499999999999996
 74
0
 49
-3.1749999999999998
 74
0
 49
6.3499999999999996
 74
0
 49
-3.1749999999999998
 74
0
 49
0.0
 74
0
 49
-3.1749999999999998
 74
0
  0
LTYPE
  5
37
100
AcDbSymbolTableRecord
100
AcDbLinetypeTableRecord
  2
BORDERX2
 70
0
  3
Border (2x) ____  ____  .  ____  ____  .  ___
 72
65
 73
6
 40
88.900000000000006
 49
25.399999999999999
 74
0
 49
-12.699999999999999
 74
0
 49
25.399999999999999
 74
0
 49
-12.699999999999999
 74
0
 49
0.0
 74
0
 49
-12.699999999999999
 74
0
  0
LTYPE
  5
38
100
AcDbSymbolTableRecord
100
AcDbLinetypeTableRecord
  2
CENTER
 70
0
  3
Center ____ _ ____ _ ____ _ ____ _ ____ _ ____
 72
65
 73
4
 40
50.799999999999997
 49
31.75
 74
0
 49
-6.3499999999999996
 74
0
 49
6.3499999999999996
 74
0
 49
-6.3499999999999996
 74
0
  0
LTYPE
  5
39
100
AcDbSymbolTableRecord
100
AcDbLinetypeTableRecord
  2
CENTER2
 70
0
  3
Center (.5x) ___ _ ___ _ ___ _ ___ _ ___ _ ___
 72
65
 73
4
 40
28.574999999999999
 49
19.050000000000001
 74
0
 49
-3.1749999999999998
 74
0
 49
3.1749999999999998
 74
0
 49
-3.1749999999999998
 74
0
  0
LTYPE
  5
3A
100
AcDbSymbolTableRecord
100
AcDbLinetypeTableRecord
  2
CENTERX2
 70
0
  3
Center (2x) ________  __  ________  __  _____
 72
65
 73
4
 40
101.59999999999999
 49
63.5
 74
0
 49
-12.699999999999999
 74
0
 49
12.699999999999999
 74
0
 49
-12.699999999999999
 74
0
  0
LTYPE
  5
3B
100
AcDbSymbolTableRecord
100
AcDbLinetypeTableRecord
  2
DASHDOT
 70
0
  3
Dash dot __ . __ . __ . __ . __ . __ . __ . __
 72
65
 73
4
 40
25.399999999999999
 49
12.699999999999999
 74
0
 49
-6.3499999999999996
 74
0
 49
0.0
 74
0
 49
-6.3499999999999996
 74
0
  0
LTYPE
  5
3C
100
AcDbSymbolTableRecord
100
AcDbLinetypeTableRecord
  2
DASHDOT2
 70
0
  3
Dash dot (.5x) _._._._._._._._._._._._._._._.
 72
65
 73
4
 40
12.699999999999999
 49
6.3499999999999996
 74
0
 49
-3.1749999999999998
 74
0
 49
0.0
 74
0
 49
-3.1749999999999998
 74
0
  0
LTYPE
  5
3D
100
AcDbSymbolTableRecord
100
AcDbLinetypeTableRecord
  2
DASHDOTX2
 70
0
  3
Dash dot (2x) ____  .  ____  .  ____  .  ___
 72
65
 73
4
 40
50.799999999999997
 49
25.399999999999999
 74
0
 49
-12.699999999999999
 74
0
 49
0.0
 74
0
 49
-12.699999999999999
 74
0
  0
LTYPE
  5
3E
100
AcDbSymbolTableRecord
100
AcDbLinetypeTableRecord
  2
DASHED
 70
0
  3
Dashed __ __ __ __ __ __ __ __ __ __ __ __ __ _
 72
65
 73
2
 40
19.050000000000001
 49
12.699999999999999
 74
0
 49
-6.3499999999999996
 74
0
  0
LTYPE
  5
3F
100
AcDbSymbolTableRecord
100
AcDbLinetypeTableRecord
  2
DASHED2
 70
0
  3
Dashed (.5x) _ _ _ _ _ _ _ _ _ _ _ _ _ _ _ _ _
 72
65
 73
2
 40
9.5250000000000004
 49
6.3499999999999996
 74
0
 49
-3.1749999999999998
 74
0
  0
LTYPE
  5
40
100
AcDbSymbolTableRecord
100
AcDbLinetypeTableRecord
  2
DASHEDX2
 70
0
  3
Dashed (2x) ____  ____  ____  ____  ____  ___
 72
65
 73
2
 40
38.100000000000001
 49
25.399999999999999
 74
0
 49
-12.699999999999999
 74
0
  0
LTYPE
  5
41
100
AcDbSymbolTableRecord
100
AcDbLinetypeTableRecord
  2
DIVIDE
 70
0
  3
Divide ____ . . ____ . . ____ . . ____ . . ____
 72
65
 73
6
 40
31.75
 49
12.699999999999999
 74
0
 49
-6.3499999999999996
 74
0
 49
0.0
 74
0
 49
-6.3499999999999996
 74
0
 49
0.0
 74
0
 49
-6.3499999999999996
 74
0
  0
LTYPE
  5
42
100
AcDbSymbolTableRecord
100
AcDbLinetypeTableRecord
  2
DIVIDE2
 70
0
  3
Divide (.5x) __..__..__..__..__..__..__..__.._
 72
65
 73
6
 40
15.875
 49
6.3499999999999996
 74
0
 49
-3.1749999999999998
 74
0
 49
0.0
 74
0
 49
-3.1749999999999998
 74
0
 49
0.0
 74
0
 49
-3.1749999999999998
 74
0
  0
LTYPE
  5
43
100
AcDbSymbolTableRecord
100
AcDbLinetypeTableRecord
  2
DIVIDEX2
 70
0
  3
Divide (2x) ________  .  .  ________  .  .  _
 72
65
 73
6
 40
63.5
 49
25.399999999999999
 74
0
 49
-12.699999999999999
 74
0
 49
0.0
 74
0
 49
-12.699999999999999
 74
0
 49
0.0
 74
0
 49
-12.699999999999999
 74
0
  0
LTYPE
  5
44
100
AcDbSymbolTableRecord
100
AcDbLinetypeTableRecord
  2
DOT
 70
0
  3
Dot . . . . . . . . . . . . . . . . . . . . . .
 72
65
 73
2
 40
6.3499999999999996
 49
0.0
 74
0
 49
-6.3499999999999996
 74
0
  0
LTYPE
  5
45
100
AcDbSymbolTableRecord
100
AcDbLinetypeTableRecord
  2
DOT2
 70
0
  3
Dot (.5x) .....................................
 72
65
 73
2
 40
3.1749999999999998
 49
0.0
 74
0
 49
-3.1749999999999998
 74
0
  0
LTYPE
  5
46
100
AcDbSymbolTableRecord
100
AcDbLinetypeTableRecord
  2
DOTX2
 70
0
  3
Dot (2x) .  .  .  .  .  .  .  .  .  .  .  .  .
 72
65
 73
2
 40
12.699999999999999
 49
0.0
 74
0
 49
-12.699999999999999
 74
0
  0
ENDTAB
  0
TABLE
  2
LAYER
  5
2
100
AcDbSymbolTable
 70
5
  0
LAYER
  5
10
100
AcDbSymbolTableRecord
100
AcDbLayerTableRecord
  2
0
 70
0
 62
250
  6
CONTINUOUS
370
100
390
F
  0
LAYER
  5
47
100
AcDbSymbolTableRecord
100
AcDbLayerTableRecord
  2
H
 70
0
 62
7
  6
CONTINUOUS
370
100
390
F
  0
LAYER
  5
48
100
AcDbSymbolTableRecord
100
AcDbLayerTableRecord
  2
P
 70
0
 62
250
  6
CONTINUOUS
370
100
390
F
  0
LAYER
  5
49
100
AcDbSymbolTableRecord
100
AcDbLayerTableRecord
  2
Text
 70
0
 62
250
  6
CONTINUOUS
370
100
390
F
  0
LAYER
  5
4A
100
AcDbSymbolTableRecord
100
AcDbLayerTableRecord
  2
Images
 70
0
 62
250
  6
CONTINUOUS
370
100
390
F
  0
ENDTAB
  0
TABLE
  2
STYLE
  5
3
100
AcDbSymbolTable
 70
1
  0
STYLE
  5
11
100
AcDbSymbolTableRecord
100
AcDbTextStyleTableRecord
  2
Standard
 70
0
 40
0.0
 41
0.75
 50
0.0
 71
0
 42
2.5
  3
txt
  4

  0
ENDTAB
  0
TABLE
  2
VIEW
  5
6
100
AcDbSymbolTable
 70
0
  0
ENDTAB
  0
TABLE
  2
UCS
  5
7
100
AcDbSymbolTable
 70
0
  0
ENDTAB
  0
TABLE
  2
APPID
  5
9
100
AcDbSymbolTable
 70
1
  0
APPID
  5
12
100
AcDbSymbolTableRecord
100
AcDbRegAppTableRecord
  2
ACAD
 70
0
  0
ENDTAB
  0
TABLE
  2
DIMSTYLE
  5
A
100
AcDbSymbolTable
 70
1
100
AcDbDimStyleTable
 71
0
  0
DIMSTYLE
105
27
100
AcDbSymbolTableRecord
100
AcDbDimStyleTableRecord
  2
Standard
 41
1.0
 42
1.0
 43
3.75
 44
1.0
 70
0
 73
0
 74
0
 77
1
 78
8
140
1.0
141
2.5
143
0.03937007874016
147
1.0
171
3
172
1
271
2
272
2
274
3
278
44
283
0
284
8
340
11
  0
ENDTAB
  0
TABLE
  2
BLOCK_RECORD
  5
1
100
AcDbSymbolTable
 70
1
  0
BLOCK_RECORD
  5
1F
100
AcDbSymbolTableRecord
100
AcDbBlockTableRecord
  2
*Model_Space
340
22
  0
BLOCK_RECORD
  5
1B
100
AcDbSymbolTableRecord
100
AcDbBlockTableRecord
  2
*Paper_Space
340
1E
  0
BLOCK_RECORD
  5
23
100
AcDbSymbolTableRecord
100
AcDbBlockTableRecord
  2
*Paper_Space0
340
26
  0
ENDTAB
  0
ENDSEC
  0
SECTION
  2
BLOCKS
  0
BLOCK
  5
20
100
AcDbEntity
  8
0
100
AcDbBlockBegin
  2
*Model_Space
 70
0
 10
0.0
 20
0.0
 30
0.0
  3
*Model_Space
  1

  0
ENDBLK
  5
21
100
AcDbEntity
  8
0
100
AcDbBlockEnd
  0
BLOCK
  5
1C
100
AcDbEntity
 67
1
  8
0
100
AcDbBlockBegin
  2
*Paper_Space
 70
0
 10
0.0
 20
0.0
 30
0.0
  3
*Paper_Space
  1

  0
ENDBLK
  5
1D
100
AcDbEntity
 67
1
  8
0
100
AcDbBlockEnd
  0
BLOCK
  5
24
100
AcDbEntity
  8
0
100
AcDbBlockBegin
  2
*Paper_Space0
 70
0
 10
0.0
 20
0.0
 30
0.0
  3
*Paper_Space0
  1

  0
ENDBLK
  5
25
100
AcDbEntity
  8
0
100
AcDbBlockEnd
  0
ENDSEC
  0
SECTION
  2
ENTITIES
  0
HATCH
  5
4B
  8
H
 62
0
370
-1
  6
CONTINUOUS
100
AcDbEntity
100
AcDbHatch
 10
0.0
 20
0.0
 30
0.0
210
0.0
220
0.0
230
1.0
  2
SOLID
 70
1
 71
0
 91
1
 92
1
 93
429
 72
1
 10
-94.333333333333343
 20
-118.33333333333331
 11
-94.333333333333343
 21
-116.66666666666669
 72
1
 10
-94.333333333333343
 20
-116.66666666666669
 11
-94.333333333333343
 21
-115.33333333333331
 72
1
 10
-94.333333333333343
 20
-115.33333333333331
 11
-94.666666666666657
 21
-113.66666666666669
 72
1
 10
-94.666666666666657
 20
-113.66666666666669
 11
-95.0
 21
-112.0
 72
1
 10
-95.0
 20
-112.0
 11
-95.666666666666657
 21
-110.33333333333331
 72
1
 10
-95.666666666666657
 20
-110.33333333333331
 11
-96.333333333333343
 21
-108.66666666666669
 72
1
 10
-96.333333333333343
 20
-108.66666666666669
 11
-97.0
 21
-107.33333333333331
 72
1
 10
-97.0
 20
-107.33333333333331
 11
-98.0
 21
-105.66666666666669
 72
1
 10
-98.0
 20
-105.66666666666669
 11
-98.333333333333329
 21
-104.66666666666669
 72
1
 10
-98.333333333333329
 20
-104.66666666666669
 11
-99.0
 21
-104.0
 72
1
 10
-99.0
 20
-104.0
 11
-99.333333333333329
 21
-103.0
 72
1
 10
-99.333333333333329
 20
-103.0
 11
-100.0
 21
-102.0
 72
1
 10
-100.0
 20
-102.0
 11
-100.66666666666667
 21
-101.0
 72
1
 10
-100.66666666666667
 20
-101.0
 11
-101.33333333333333
 21
-100.33333333333331
 72
1
 10
-101.33333333333333
 20
-100.33333333333331
 11
-102.0
 21
-99.0
 72
1
 10
-102.0
 20
-99.0
 11
-103.0
 21
-98.0
 72
1
 10
-103.0
 20
-98.0
 11
-103.66666666666667
 21
-97.0
 72
1
 10
-103.66666666666667
 20
-97.0
 11
-104.66666666666667
 21
-96.0
 72
1
 10
-104.66666666666667
 20
-96.0
 11
-105.66666666666667
 21
-94.666666666666686
 72
1
 10
-105.66666666666667
 20
-94.666666666666686
 11
-106.33333333333333
 21
-93.666666666666686
 72
1
 10
-106.33333333333333
 20
-93.666666666666686
 11
-107.33333333333333
 21
-92.333333333333314
 72
1
 10
-107.33333333333333
 20
-92.333333333333314
 11
-108.66666666666667
 21
-91.0
 72
1
 10
-108.66666666666667
 20
-91.0
 11
-109.66666666666667
 21
-90.0
 72
1
 10
-109.66666666666667
 20
-90.0
 11
-110.66666666666667
 21
-88.666666666666686
 72
1
 10
-110.66666666666667
 20
-88.666666666666686
 11
-112.0
 21
-87.333333333333314
 72
1
 10
-112.0
 20
-87.333333333333314
 11
-113.0
 21
-86.0
 72
1
 10
-113.0
 20
-86.0
 11
-114.33333333333333
 21
-84.666666666666686
 72
1
 10
-114.33333333333333
 20
-84.666666666666686
 11
-115.33333333333333
 21
-83.333333333333314
 72
1
 10
-115.33333333333333
 20
-83.333333333333314
 11
-116.33333333333333
 21
-82.0
 72
1
 10
-116.33333333333333
 20
-82.0
 11
-117.33333333333333
 21
-81.0
 72
1
 10
-117.33333333333333
 20
-81.0
 11
-118.33333333333333
 21
-79.666666666666686
 72
1
 10
-118.33333333333333
 20
-79.666666666666686
 11
-119.33333333333333
 21
-78.666666666666686
 72
1
 10
-119.33333333333333
 20
-78.666666666666686
 11
-120.33333333333333
 21
-77.333333333333314
 72
1
 10
-120.33333333333333
 20
-77.333333333333314
 11
-121.33333333333333
 21
-76.333333333333314
 72
1
 10
-121.33333333333333
 20
-76.333333333333314
 11
-122.33333333333333
 21
-75.333333333333314
 72
1
 10
-122.33333333333333
 20
-75.333333333333314
 11
-123.33333333333333
 21
-74.0
 72
1
 10
-123.33333333333333
 20
-74.0
 11
-124.33333333333333
 21
-73.0
 72
1
 10
-124.33333333333333
 20
-73.0
 11
-125.0
 21
-72.0
 72
1
 10
-125.0
 20
-72.0
 11
-126.0
 21
-71.0
 72
1
 10
-126.0
 20
-71.0
 11
-126.66666666666667
 21
-70.0
 72
1
 10
-126.66666666666667
 20
-70.0
 11
-127.66666666666667
 21
-69.333333333333314
 72
1
 10
-127.66666666666667
 20
-69.333333333333314
 11
-128.33333333333331
 21
-68.333333333333314
 72
1
 10
-128.33333333333331
 20
-68.333333333333314
 11
-129.0
 21
-67.333333333333314
 72
1
 10
-129.0
 20
-67.333333333333314
 11
-129.66666666666669
 21
-66.333333333333314
 72
1
 10
-129.66666666666669
 20
-66.333333333333314
 11
-130.66666666666669
 21
-65.666666666666686
 72
1
 10
-130.66666666666669
 20
-65.666666666666686
 11
-131.33333333333331
 21
-64.666666666666686
 72
1
 10
-131.33333333333331
 20
-64.666666666666686
 11
-132.0
 21
-64.0
 72
1
 10
-132.0
 20
-64.0
 11
-132.33333333333331
 21
-63.333333333333314
 72
1
 10
-132.33333333333331
 20
-63.333333333333314
 11
-133.0
 21
-62.333333333333314
 72
1
 10
-133.0
 20
-62.333333333333314
 11
-133.66666666666669
 21
-61.666666666666686
 72
1
 10
-133.66666666666669
 20
-61.666666666666686
 11
-134.66666666666669
 21
-60.333333333333314
 72
1
 10
-134.66666666666669
 20
-60.333333333333314
 11
-136.0
 21
-59.0
 72
1
 10
-136.0
 20
-59.0
 11
-136.66666666666669
 21
-58.0
 72
1
 10
-136.66666666666669
 20
-58.0
 11
-137.66666666666669
 21
-56.666666666666657
 72
1
 10
-137.66666666666669
 20
-56.666666666666657
 11
-138.66666666666669
 21
-55.666666666666657
 72
1
 10
-138.66666666666669
 20
-55.666666666666657
 11
-139.33333333333331
 21
-54.666666666666657
 72
1
 10
-139.33333333333331
 20
-54.666666666666657
 11
-140.33333333333331
 21
-53.333333333333343
 72
1
 10
-140.33333333333331
 20
-53.333333333333343
 11
-141.0
 21
-52.333333333333343
 72
1
 10
-141.0
 20
-52.333333333333343
 11
-141.66666666666669
 21
-51.333333333333343
 72
1
 10
-141.66666666666669
 20
-51.333333333333343
 11
-142.33333333333331
 21
-50.0
 72
1
 10
-142.33333333333331
 20
-50.0
 11
-143.33333333333331
 21
-49.0
 72
1
 10
-143.33333333333331
 20
-49.0
 11
-144.0
 21
-48.0
 72
1
 10
-144.0
 20
-48.0
 11
-144.66666666666669
 21
-47.0
 72
1
 10
-144.66666666666669
 20
-47.0
 11
-145.33333333333331
 21
-45.666666666666657
 72
1
 10
-145.33333333333331
 20
-45.666666666666657
 11
-146.0
 21
-44.666666666666657
 72
1
 10
-146.0
 20
-44.666666666666657
 11
-146.66666666666669
 21
-43.666666666666657
 72
1
 10
-146.66666666666669
 20
-43.666666666666657
 11
-147.0
 21
-42.666666666666657
 72
1
 10
-147.0
 20
-42.666666666666657
 11
-147.66666666666669
 21
-41.666666666666657
 72
1
 10
-147.66666666666669
 20
-41.666666666666657
 11
-148.33333333333331
 21
-40.666666666666657
 72
1
 10
-148.33333333333331
 20
-40.666666666666657
 11
-149.0
 21
-39.666666666666657
 72
1
 10
-149.0
 20
-39.666666666666657
 11
-149.33333333333331
 21
-38.333333333333343
 72
1
 10
-149.33333333333331
 20
-38.333333333333343
 11
-150.0
 21
-37.333333333333343
 72
1
 10
-150.0
 20
-37.333333333333343
 11
-150.66666666666669
 21
-36.0
 72
1
 10
-150.66666666666669
 20
-36.0
 11
-151.0
 21
-35.0
 72
1
 10
-151.0
 20
-35.0
 11
-151.66666666666669
 21
-34.0
 72
1
 10
-151.66666666666669
 20
-34.0
 11
-152.33333333333331
 21
-32.666666666666657
 72
1
 10
-152.33333333333331
 20
-32.666666666666657
 11
-152.66666666666669
 21
-31.666666666666657
 72
1
 10
-152.66666666666669
 20
-31.666666666666657
 11
-153.0
 21
-30.666666666666657
 72
1
 10
-153.0
 20
-30.666666666666657
 11
-153.66666666666669
 21
-29.333333333333343
 72
1
 10
-153.66666666666669
 20
-29.333333333333343
 11
-154.0
 21
-28.333333333333343
 72
1
 10
-154.0
 20
-28.333333333333343
 11
-154.33333333333331
 21
-27.333333333333343
 72
1
 10
-154.33333333333331
 20
-27.333333333333343
 11
-154.66666666666669
 21
-26.0
 72
1
 10
-154.66666666666669
 20
-26.0
 11
-155.0
 21
-25.0
 72
1
 10
-155.0
 20
-25.0
 11
-155.33333333333331
 21
-24.0
 72
1
 10
-155.33333333333331
 20
-24.0
 11
-155.66666666666669
 21
-22.666666666666657
 72
1
 10
-155.66666666666669
 20
-22.666666666666657
 11
-156.0
 21
-21.666666666666657
 72
1
 10
-156.0
 20
-21.666666666666657
 11
-156.33333333333331
 21
-20.333333333333343
 72
1
 10
-156.33333333333331
 20
-20.333333333333343
 11
-156.66666666666669
 21
-19.333333333333343
 72
1
 10
-156.66666666666669
 20
-19.333333333333343
 11
-157.0
 21
-18.333333333333343
 72
1
 10
-157.0
 20
-18.333333333333343
 11
-157.0
 21
-17.0
 72
1
 10
-157.0
 20
-17.0
 11
-157.33333333333331
 21
-16.0
 72
1
 10
-157.33333333333331
 20
-16.0
 11
-157.33333333333331
 21
-15.0
 72
1
 10
-157.33333333333331
 20
-15.0
 11
-157.66666666666669
 21
-13.666666666666657
 72
1
 10
-157.66666666666669
 20
-13.666666666666657
 11
-157.66666666666669
 21
-12.666666666666657
 72
1
 10
-157.66666666666669
 20
-12.666666666666657
 11
-158.0
 21
-11.666666666666657
 72
1
 10
-158.0
 20
-11.666666666666657
 11
-158.0
 21
-10.333333333333343
 72
1
 10
-158.0
 20
-10.333333333333343
 11
-158.0
 21
-9.3333333333333428
 72
1
 10
-158.0
 20
-9.3333333333333428
 11
-158.33333333333331
 21
-8.3333333333333428
 72
1
 10
-158.33333333333331
 20
-8.3333333333333428
 11
-158.33333333333331
 21
-7.0
 72
1
 10
-158.33333333333331
 20
-7.0
 11
-158.33333333333331
 21
-6.0
 72
1
 10
-158.33333333333331
 20
-6.0
 11
-158.33333333333331
 21
-5.0
 72
1
 10
-158.33333333333331
 20
-5.0
 11
-158.33333333333331
 21
-3.6666666666666572
 72
1
 10
-158.33333333333331
 20
-3.6666666666666572
 11
-158.33333333333331
 21
-2.6666666666666572
 72
1
 10
-158.33333333333331
 20
-2.6666666666666572
 11
-158.33333333333331
 21
-1.3333333333333428
 72
1
 10
-158.33333333333331
 20
-1.3333333333333428
 11
-158.0
 21
-0.3333333333333428
 72
1
 10
-158.0
 20
-0.3333333333333428
 11
-158.0
 21
1.0
 72
1
 10
-158.0
 20
1.0
 11
-158.0
 21
2.0
 72
1
 10
-158.0
 20
2.0
 11
-158.0
 21
3.0
 72
1
 10
-158.0
 20
3.0
 11
-157.66666666666669
 21
4.3333333333333428
 72
1
 10
-157.66666666666669
 20
4.3333333333333428
 11
-157.66666666666669
 21
5.3333333333333428
 72
1
 10
-157.66666666666669
 20
5.3333333333333428
 11
-157.33333333333331
 21
6.3333333333333428
 72
1
 10
-157.33333333333331
 20
6.3333333333333428
 11
-157.33333333333331
 21
7.6666666666666572
 72
1
 10
-157.33333333333331
 20
7.6666666666666572
 11
-157.0
 21
8.6666666666666572
 72
1
 10
-157.0
 20
8.6666666666666572
 11
-156.66666666666669
 21
9.6666666666666572
 72
1
 10
-156.66666666666669
 20
9.6666666666666572
 11
-156.66666666666669
 21
11.0
 72
1
 10
-156.66666666666669
 20
11.0
 11
-156.33333333333331
 21
12.0
 72
1
 10
-156.33333333333331
 20
12.0
 11
-156.0
 21
13.0
 72
1
 10
-156.0
 20
13.0
 11
-155.66666666666669
 21
14.0
 72
1
 10
-155.66666666666669
 20
14.0
 11
-155.33333333333331
 21
15.333333333333343
 72
1
 10
-155.33333333333331
 20
15.333333333333343
 11
-155.0
 21
16.333333333333343
 72
1
 10
-155.0
 20
16.333333333333343
 11
-154.66666666666669
 21
17.333333333333343
 72
1
 10
-154.66666666666669
 20
17.333333333333343
 11
-154.33333333333331
 21
18.333333333333343
 72
1
 10
-154.33333333333331
 20
18.333333333333343
 11
-154.0
 21
19.333333333333343
 72
1
 10
-154.0
 20
19.333333333333343
 11
-153.33333333333331
 21
20.666666666666657
 72
1
 10
-153.33333333333331
 20
20.666666666666657
 11
-153.0
 21
21.666666666666657
 72
1
 10
-153.0
 20
21.666666666666657
 11
-152.66666666666669
 21
22.666666666666657
 72
1
 10
-152.66666666666669
 20
22.666666666666657
 11
-152.0
 21
23.666666666666657
 72
1
 10
-152.0
 20
23.666666666666657
 11
-151.66666666666669
 21
24.666666666666657
 72
1
 10
-151.66666666666669
 20
24.666666666666657
 11
-151.33333333333331
 21
25.666666666666657
 72
1
 10
-151.33333333333331
 20
25.666666666666657
 11
-150.66666666666669
 21
26.666666666666657
 72
1
 10
-150.66666666666669
 20
26.666666666666657
 11
-150.0
 21
27.666666666666657
 72
1
 10
-150.0
 20
27.666666666666657
 11
-149.66666666666669
 21
29.0
 72
1
 10
-149.66666666666669
 20
29.0
 11
-149.0
 21
30.0
 72
1
 10
-149.0
 20
30.0
 11
-148.33333333333331
 21
31.0
 72
1
 10
-148.33333333333331
 20
31.0
 11
-147.66666666666669
 21
31.666666666666657
 72
1
 10
-147.66666666666669
 20
31.666666666666657
 11
-147.33333333333331
 21
32.666666666666657
 72
1
 10
-147.33333333333331
 20
32.666666666666657
 11
-146.66666666666669
 21
33.666666666666657
 72
1
 10
-146.66666666666669
 20
33.666666666666657
 11
-146.0
 21
34.666666666666657
 72
1
 10
-146.0
 20
34.666666666666657
 11
-145.33333333333331
 21
35.666666666666657
 72
1
 10
-145.33333333333331
 20
35.666666666666657
 11
-144.66666666666669
 21
36.333333333333343
 72
1
 10
-144.66666666666669
 20
36.333333333333343
 11
-144.0
 21
37.333333333333343
 72
1
 10
-144.0
 20
37.333333333333343
 11
-143.33333333333331
 21
38.333333333333343
 72
1
 10
-143.33333333333331
 20
38.333333333333343
 11
-142.66666666666669
 21
39.0
 72
1
 10
-142.66666666666669
 20
39.0
 11
-141.66666666666669
 21
40.0
 72
1
 10
-141.66666666666669
 20
40.0
 11
-141.0
 21
40.666666666666657
 72
1
 10
-141.0
 20
40.666666666666657
 11
-140.33333333333331
 21
41.666666666666657
 72
1
 10
-140.33333333333331
 20
41.666666666666657
 11
-139.66666666666669
 21
42.333333333333343
 72
1
 10
-139.66666666666669
 20
42.333333333333343
 11
-138.66666666666669
 21
43.0
 72
1
 10
-138.66666666666669
 20
43.0
 11
-138.0
 21
44.0
 72
1
 10
-138.0
 20
44.0
 11
-137.33333333333331
 21
44.666666666666657
 72
1
 10
-137.33333333333331
 20
44.666666666666657
 11
-136.33333333333331
 21
45.333333333333343
 72
1
 10
-136.33333333333331
 20
45.333333333333343
 11
-135.66666666666669
 21
46.0
 72
1
 10
-135.66666666666669
 20
46.0
 11
-134.66666666666669
 21
46.666666666666657
 72
1
 10
-134.66666666666669
 20
46.666666666666657
 11
-133.66666666666669
 21
47.333333333333343
 72
1
 10
-133.66666666666669
 20
47.333333333333343
 11
-133.0
 21
48.0
 72
1
 10
-133.0
 20
48.0
 11
-132.0
 21
48.666666666666657
 72
1
 10
-132.0
 20
48.666666666666657
 11
-131.0
 21
49.333333333333343
 72
1
 10
-131.0
 20
49.333333333333343
 11
-130.33333333333331
 21
50.0
 72
1
 10
-130.33333333333331
 20
50.0
 11
-129.33333333333331
 21
50.666666666666657
 72
1
 10
-129.33333333333331
 20
50.666666666666657
 11
-128.33333333333331
 21
51.0
 72
1
 10
-128.33333333333331
 20
51.0
 11
-127.33333333333333
 21
51.666666666666657
 72
1
 10
-127.33333333333333
 20
51.666666666666657
 11
-126.33333333333333
 21
52.333333333333343
 72
1
 10
-126.33333333333333
 20
52.333333333333343
 11
-125.33333333333333
 21
52.666666666666657
 72
1
 10
-125.33333333333333
 20
52.666666666666657
 11
-124.33333333333333
 21
53.333333333333343
 72
1
 10
-124.33333333333333
 20
53.333333333333343
 11
-123.33333333333333
 21
54.0
 72
1
 10
-123.33333333333333
 20
54.0
 11
-122.33333333333333
 21
54.333333333333343
 72
1
 10
-122.33333333333333
 20
54.333333333333343
 11
-121.33333333333333
 21
54.666666666666657
 72
1
 10
-121.33333333333333
 20
54.666666666666657
 11
-120.33333333333333
 21
55.333333333333343
 72
1
 10
-120.33333333333333
 20
55.333333333333343
 11
-119.0
 21
55.666666666666657
 72
1
 10
-119.0
 20
55.666666666666657
 11
-118.0
 21
56.0
 72
1
 10
-118.0
 20
56.0
 11
-117.0
 21
56.666666666666657
 72
1
 10
-117.0
 20
56.666666666666657
 11
-115.66666666666667
 21
57.0
 72
1
 10
-115.66666666666667
 20
57.0
 11
-114.66666666666667
 21
57.333333333333343
 72
1
 10
-114.66666666666667
 20
57.333333333333343
 11
-113.66666666666667
 21
57.666666666666657
 72
1
 10
-113.66666666666667
 20
57.666666666666657
 11
-112.33333333333333
 21
58.0
 72
1
 10
-112.33333333333333
 20
58.0
 11
-111.33333333333333
 21
58.333333333333343
 72
1
 10
-111.33333333333333
 20
58.333333333333343
 11
-110.0
 21
58.666666666666657
 72
1
 10
-110.0
 20
58.666666666666657
 11
-108.66666666666667
 21
59.0
 72
1
 10
-108.66666666666667
 20
59.0
 11
-107.66666666666667
 21
59.333333333333343
 72
1
 10
-107.66666666666667
 20
59.333333333333343
 11
-106.33333333333333
 21
59.666666666666657
 72
1
 10
-106.33333333333333
 20
59.666666666666657
 11
-105.0
 21
60.0
 72
1
 10
-105.0
 20
60.0
 11
-103.66666666666667
 21
60.0
 72
1
 10
-103.66666666666667
 20
60.0
 11
-102.66666666666667
 21
60.333333333333343
 72
1
 10
-102.66666666666667
 20
60.333333333333343
 11
-101.33333333333333
 21
60.666666666666657
 72
1
 10
-101.33333333333333
 20
60.666666666666657
 11
-100.0
 21
60.666666666666657
 72
1
 10
-100.0
 20
60.666666666666657
 11
-98.666666666666671
 21
61.0
 72
1
 10
-98.666666666666671
 20
61.0
 11
-97.333333333333343
 21
61.0
 72
1
 10
-97.333333333333343
 20
61.0
 11
-96.0
 21
61.333333333333343
 72
1
 10
-96.0
 20
61.333333333333343
 11
-94.666666666666657
 21
61.333333333333343
 72
1
 10
-94.666666666666657
 20
61.333333333333343
 11
-93.333333333333343
 21
61.333333333333343
 72
1
 10
-93.333333333333343
 20
61.333333333333343
 11
-91.666666666666657
 21
61.666666666666657
 72
1
 10
-91.666666666666657
 20
61.666666666666657
 11
-90.333333333333343
 21
61.666666666666657
 72
1
 10
-90.333333333333343
 20
61.666666666666657
 11
-89.0
 21
61.666666666666657
 72
1
 10
-89.0
 20
61.666666666666657
 11
-87.666666666666657
 21
61.666666666666657
 72
1
 10
-87.666666666666657
 20
61.666666666666657
 11
-86.0
 21
61.666666666666657
 72
1
 10
-86.0
 20
61.666666666666657
 11
-84.666666666666657
 21
62.0
 72
1
 10
-84.666666666666657
 20
62.0
 11
-83.0
 21
62.0
 72
1
 10
-83.0
 20
62.0
 11
-30.0
 21
62.0
 72
1
 10
-30.0
 20
62.0
 11
-30.0
 21
15.666666666666657
 72
1
 10
-30.0
 20
15.666666666666657
 11
-77.0
 21
15.666666666666657
 72
1
 10
-77.0
 20
15.666666666666657
 11
-79.0
 21
15.666666666666657
 72
1
 10
-79.0
 20
15.666666666666657
 11
-80.666666666666657
 21
15.333333333333343
 72
1
 10
-80.666666666666657
 20
15.333333333333343
 11
-82.333333333333343
 21
15.333333333333343
 72
1
 10
-82.333333333333343
 20
15.333333333333343
 11
-84.0
 21
15.0
 72
1
 10
-84.0
 20
15.0
 11
-85.333333333333343
 21
15.0
 72
1
 10
-85.333333333333343
 20
15.0
 11
-87.0
 21
14.666666666666657
 72
1
 10
-87.0
 20
14.666666666666657
 11
-88.333333333333343
 21
14.333333333333343
 72
1
 10
-88.333333333333343
 20
14.333333333333343
 11
-89.666666666666657
 21
13.666666666666657
 72
1
 10
-89.666666666666657
 20
13.666666666666657
 11
-91.0
 21
13.333333333333343
 72
1
 10
-91.0
 20
13.333333333333343
 11
-92.333333333333343
 21
12.666666666666657
 72
1
 10
-92.333333333333343
 20
12.666666666666657
 11
-93.333333333333343
 21
12.0
 72
1
 10
-93.333333333333343
 20
12.0
 11
-94.666666666666657
 21
11.333333333333343
 72
1
 10
-94.666666666666657
 20
11.333333333333343
 11
-95.666666666666657
 21
10.666666666666657
 72
1
 10
-95.666666666666657
 20
10.666666666666657
 11
-96.666666666666657
 21
10.0
 72
1
 10
-96.666666666666657
 20
10.0
 11
-97.333333333333343
 21
9.0
 72
1
 10
-97.333333333333343
 20
9.0
 11
-98.333333333333329
 21
8.0
 72
1
 10
-98.333333333333329
 20
8.0
 11
-99.0
 21
7.3333333333333428
 72
1
 10
-99.0
 20
7.3333333333333428
 11
-99.333333333333329
 21
6.3333333333333428
 72
1
 10
-99.333333333333329
 20
6.3333333333333428
 11
-100.0
 21
5.6666666666666572
 72
1
 10
-100.0
 20
5.6666666666666572
 11
-100.33333333333333
 21
4.6666666666666572
 72
1
 10
-100.33333333333333
 20
4.6666666666666572
 11
-100.66666666666667
 21
3.6666666666666572
 72
1
 10
-100.66666666666667
 20
3.6666666666666572
 11
-101.0
 21
2.6666666666666572
 72
1
 10
-101.0
 20
2.6666666666666572
 11
-101.33333333333333
 21
1.6666666666666572
 72
1
 10
-101.33333333333333
 20
1.6666666666666572
 11
-101.33333333333333
 21
0.6666666666666572
 72
1
 10
-101.33333333333333
 20
0.6666666666666572
 11
-101.33333333333333
 21
-0.3333333333333428
 72
1
 10
-101.33333333333333
 20
-0.3333333333333428
 11
-101.33333333333333
 21
-1.3333333333333428
 72
1
 10
-101.33333333333333
 20
-1.3333333333333428
 11
-101.33333333333333
 21
-2.3333333333333428
 72
1
 10
-101.33333333333333
 20
-2.3333333333333428
 11
-101.33333333333333
 21
-3.3333333333333428
 72
1
 10
-101.33333333333333
 20
-3.3333333333333428
 11
-101.0
 21
-4.3333333333333428
 72
1
 10
-101.0
 20
-4.3333333333333428
 11
-100.66666666666667
 21
-5.3333333333333428
 72
1
 10
-100.66666666666667
 20
-5.3333333333333428
 11
-100.66666666666667
 21
-6.3333333333333428
 72
1
 10
-100.66666666666667
 20
-6.3333333333333428
 11
-100.33333333333333
 21
-7.3333333333333428
 72
1
 10
-100.33333333333333
 20
-7.3333333333333428
 11
-100.0
 21
-8.6666666666666572
 72
1
 10
-100.0
 20
-8.6666666666666572
 11
-99.666666666666671
 21
-9.6666666666666572
 72
1
 10
-99.666666666666671
 20
-9.6666666666666572
 11
-99.0
 21
-10.666666666666657
 72
1
 10
-99.0
 20
-10.666666666666657
 11
-98.666666666666671
 21
-11.666666666666657
 72
1
 10
-98.666666666666671
 20
-11.666666666666657
 11
-98.333333333333329
 21
-12.666666666666657
 72
1
 10
-98.333333333333329
 20
-12.666666666666657
 11
-97.666666666666657
 21
-13.666666666666657
 72
1
 10
-97.666666666666657
 20
-13.666666666666657
 11
-97.333333333333343
 21
-14.333333333333343
 72
1
 10
-97.333333333333343
 20
-14.333333333333343
 11
-96.666666666666657
 21
-15.333333333333343
 72
1
 10
-96.666666666666657
 20
-15.333333333333343
 11
-96.333333333333343
 21
-16.333333333333343
 72
1
 10
-96.333333333333343
 20
-16.333333333333343
 11
-95.666666666666657
 21
-17.333333333333343
 72
1
 10
-95.666666666666657
 20
-17.333333333333343
 11
-95.333333333333343
 21
-18.0
 72
1
 10
-95.333333333333343
 20
-18.0
 11
-94.666666666666657
 21
-19.0
 72
1
 10
-94.666666666666657
 20
-19.0
 11
-94.0
 21
-20.0
 72
1
 10
-94.0
 20
-20.0
 11
-93.666666666666657
 21
-20.666666666666657
 72
1
 10
-93.666666666666657
 20
-20.666666666666657
 11
-92.666666666666657
 21
-22.333333333333343
 72
1
 10
-92.666666666666657
 20
-22.333333333333343
 11
-92.0
 21
-23.333333333333343
 72
1
 10
-92.0
 20
-23.333333333333343
 11
-91.0
 21
-24.333333333333343
 72
1
 10
-91.0
 20
-24.333333333333343
 11
-90.333333333333343
 21
-25.333333333333343
 72
1
 10
-90.333333333333343
 20
-25.333333333333343
 11
-89.333333333333343
 21
-26.666666666666657
 72
1
 10
-89.333333333333343
 20
-26.666666666666657
 11
-88.333333333333343
 21
-27.666666666666657
 72
1
 10
-88.333333333333343
 20
-27.666666666666657
 11
-87.333333333333343
 21
-29.0
 72
1
 10
-87.333333333333343
 20
-29.0
 11
-86.0
 21
-30.666666666666657
 72
1
 10
-86.0
 20
-30.666666666666657
 11
-85.333333333333343
 21
-31.333333333333343
 72
1
 10
-85.333333333333343
 20
-31.333333333333343
 11
-84.666666666666657
 21
-32.0
 72
1
 10
-84.666666666666657
 20
-32.0
 11
-84.0
 21
-33.0
 72
1
 10
-84.0
 20
-33.0
 11
-83.333333333333343
 21
-33.666666666666657
 72
1
 10
-83.333333333333343
 20
-33.666666666666657
 11
-82.666666666666657
 21
-34.666666666666657
 72
1
 10
-82.666666666666657
 20
-34.666666666666657
 11
-81.666666666666657
 21
-35.666666666666657
 72
1
 10
-81.666666666666657
 20
-35.666666666666657
 11
-81.0
 21
-36.666666666666657
 72
1
 10
-81.0
 20
-36.666666666666657
 11
-80.0
 21
-37.666666666666657
 72
1
 10
-80.0
 20
-37.666666666666657
 11
-79.0
 21
-38.666666666666657
 72
1
 10
-79.0
 20
-38.666666666666657
 11
-78.0
 21
-39.666666666666657
 72
1
 10
-78.0
 20
-39.666666666666657
 11
-77.0
 21
-41.0
 72
1
 10
-77.0
 20
-41.0
 11
-76.0
 21
-42.333333333333343
 72
1
 10
-76.0
 20
-42.333333333333343
 11
-74.666666666666657
 21
-43.333333333333343
 72
1
 10
-74.666666666666657
 20
-43.333333333333343
 11
-73.666666666666657
 21
-44.666666666666657
 72
1
 10
-73.666666666666657
 20
-44.666666666666657
 11
-72.333333333333343
 21
-46.333333333333343
 72
1
 10
-72.333333333333343
 20
-46.333333333333343
 11
-71.666666666666657
 21
-47.0
 72
1
 10
-71.666666666666657
 20
-47.0
 11
-71.0
 21
-47.666666666666657
 72
1
 10
-71.0
 20
-47.666666666666657
 11
-70.333333333333343
 21
-48.666666666666657
 72
1
 10
-70.333333333333343
 20
-48.666666666666657
 11
-69.666666666666657
 21
-49.333333333333343
 72
1
 10
-69.666666666666657
 20
-49.333333333333343
 11
-69.0
 21
-50.0
 72
1
 10
-69.0
 20
-50.0
 11
-68.333333333333343
 21
-51.0
 72
1
 10
-68.333333333333343
 20
-51.0
 11
-67.0
 21
-52.333333333333343
 72
1
 10
-67.0
 20
-52.333333333333343
 11
-65.666666666666657
 21
-53.666666666666657
 72
1
 10
-65.666666666666657
 20
-53.666666666666657
 11
-64.666666666666657
 21
-55.333333333333343
 72
1
 10
-64.666666666666657
 20
-55.333333333333343
 11
-63.333333333333343
 21
-56.666666666666657
 72
1
 10
-63.333333333333343
 20
-56.666666666666657
 11
-62.333333333333343
 21
-58.0
 72
1
 10
-62.333333333333343
 20
-58.0
 11
-61.333333333333343
 21
-59.333333333333314
 72
1
 10
-61.333333333333343
 20
-59.333333333333314
 11
-60.333333333333343
 21
-60.666666666666686
 72
1
 10
-60.333333333333343
 20
-60.666666666666686
 11
-59.333333333333343
 21
-62.0
 72
1
 10
-59.333333333333343
 20
-62.0
 11
-58.333333333333343
 21
-63.333333333333314
 72
1
 10
-58.333333333333343
 20
-63.333333333333314
 11
-57.333333333333343
 21
-64.666666666666686
 72
1
 10
-57.333333333333343
 20
-64.666666666666686
 11
-56.333333333333343
 21
-66.0
 72
1
 10
-56.333333333333343
 20
-66.0
 11
-55.666666666666657
 21
-67.0
 72
1
 10
-55.666666666666657
 20
-67.0
 11
-54.666666666666657
 21
-68.333333333333314
 72
1
 10
-54.666666666666657
 20
-68.333333333333314
 11
-53.666666666666657
 21
-69.666666666666686
 72
1
 10
-53.666666666666657
 20
-69.666666666666686
 11
-53.0
 21
-70.666666666666686
 72
1
 10
-53.0
 20
-70.666666666666686
 11
-52.333333333333343
 21
-72.0
 72
1
 10
-52.333333333333343
 20
-72.0
 11
-51.333333333333343
 21
-73.0
 72
1
 10
-51.333333333333343
 20
-73.0
 11
-50.666666666666657
 21
-74.333333333333314
 72
1
 10
-50.666666666666657
 20
-74.333333333333314
 11
-50.0
 21
-75.333333333333314
 72
1
 10
-50.0
 20
-75.333333333333314
 11
-49.333333333333343
 21
-76.333333333333314
 72
1
 10
-49.333333333333343
 20
-76.333333333333314
 11
-48.666666666666657
 21
-77.666666666666686
 72
1
 10
-48.666666666666657
 20
-77.666666666666686
 11
-48.0
 21
-78.666666666666686
 72
1
 10
-48.0
 20
-78.666666666666686
 11
-47.666666666666657
 21
-79.666666666666686
 72
1
 10
-47.666666666666657
 20
-79.666666666666686
 11
-47.0
 21
-80.666666666666686
 72
1
 10
-47.0
 20
-80.666666666666686
 11
-46.333333333333343
 21
-81.666666666666686
 72
1
 10
-46.333333333333343
 20
-81.666666666666686
 11
-46.0
 21
-82.333333333333314
 72
1
 10
-46.0
 20
-82.333333333333314
 11
-45.333333333333343
 21
-83.333333333333314
 72
1
 10
-45.333333333333343
 20
-83.333333333333314
 11
-45.0
 21
-84.333333333333314
 72
1
 10
-45.0
 20
-84.333333333333314
 11
-44.333333333333343
 21
-85.0
 72
1
 10
-44.333333333333343
 20
-85.0
 11
-44.0
 21
-86.0
 72
1
 10
-44.0
 20
-86.0
 11
-43.333333333333343
 21
-87.333333333333314
 72
1
 10
-43.333333333333343
 20
-87.333333333333314
 11
-42.666666666666657
 21
-88.666666666666686
 72
1
 10
-42.666666666666657
 20
-88.666666666666686
 11
-42.0
 21
-90.333333333333314
 72
1
 10
-42.0
 20
-90.333333333333314
 11
-41.333333333333343
 21
-91.666666666666686
 72
1
 10
-41.333333333333343
 20
-91.666666666666686
 11
-40.666666666666657
 21
-93.333333333333314
 72
1
 10
-40.666666666666657
 20
-93.333333333333314
 11
-40.333333333333343
 21
-95.0
 72
1
 10
-40.333333333333343
 20
-95.0
 11
-39.666666666666657
 21
-97.0
 72
1
 10
-39.666666666666657
 20
-97.0
 11
-39.333333333333343
 21
-98.666666666666686
 72
1
 10
-39.333333333333343
 20
-98.666666666666686
 11
-38.666666666666657
 21
-100.33333333333331
 72
1
 10
-38.666666666666657
 20
-100.33333333333331
 11
-38.333333333333343
 21
-102.0
 72
1
 10
-38.333333333333343
 20
-102.0
 11
-38.0
 21
-104.0
 72
1
 10
-38.0
 20
-104.0
 11
-37.666666666666657
 21
-105.66666666666669
 72
1
 10
-37.666666666666657
 20
-105.66666666666669
 11
-37.666666666666657
 21
-107.33333333333331
 72
1
 10
-37.666666666666657
 20
-107.33333333333331
 11
-37.333333333333343
 21
-108.66666666666669
 72
1
 10
-37.333333333333343
 20
-108.66666666666669
 11
-37.333333333333343
 21
-110.33333333333331
 72
1
 10
-37.333333333333343
 20
-110.33333333333331
 11
-37.0
 21
-111.66666666666669
 72
1
 10
-37.0
 20
-111.66666666666669
 11
-37.0
 21
-112.66666666666669
 72
1
 10
-37.0
 20
-112.66666666666669
 11
-37.0
 21
-113.66666666666669
 72
1
 10
-37.0
 20
-113.66666666666669
 11
-37.0
 21
-114.66666666666669
 72
1
 10
-37.0
 20
-114.66666666666669
 11
-37.333333333333343
 21
-115.66666666666669
 72
1
 10
-37.333333333333343
 20
-115.66666666666669
 11
-37.333333333333343
 21
-116.66666666666669
 72
1
 10
-37.333333333333343
 20
-116.66666666666669
 11
-37.333333333333343
 21
-118.0
 72
1
 10
-37.333333333333343
 20
-118.0
 11
-37.333333333333343
 21
-119.33333333333331
 72
1
 10
-37.333333333333343
 20
-119.33333333333331
 11
-37.666666666666657
 21
-120.66666666666669
 72
1
 10
-37.666666666666657
 20
-120.66666666666669
 11
-37.666666666666657
 21
-122.0
 72
1
 10
-37.666666666666657
 20
-122.0
 11
-38.0
 21
-123.33333333333331
 72
1
 10
-38.0
 20
-123.33333333333331
 11
-38.0
 21
-125.0
 72
1
 10
-38.0
 20
-125.0
 11
-38.333333333333343
 21
-126.33333333333331
 72
1
 10
-38.333333333333343
 20
-126.33333333333331
 11
-38.333333333333343
 21
-128.0
 72
1
 10
-38.333333333333343
 20
-128.0
 11
-38.666666666666657
 21
-129.33333333333331
 72
1
 10
-38.666666666666657
 20
-129.33333333333331
 11
-39.0
 21
-130.66666666666669
 72
1
 10
-39.0
 20
-130.66666666666669
 11
-39.0
 21
-132.33333333333331
 72
1
 10
-39.0
 20
-132.33333333333331
 11
-39.333333333333343
 21
-133.66666666666669
 72
1
 10
-39.333333333333343
 20
-133.66666666666669
 11
-39.666666666666657
 21
-135.0
 72
1
 10
-39.666666666666657
 20
-135.0
 11
-40.0
 21
-136.33333333333331
 72
1
 10
-40.0
 20
-136.33333333333331
 11
-40.666666666666657
 21
-137.66666666666669
 72
1
 10
-40.666666666666657
 20
-137.66666666666669
 11
-41.0
 21
-139.0
 72
1
 10
-41.0
 20
-139.0
 11
-41.333333333333343
 21
-140.33333333333331
 72
1
 10
-41.333333333333343
 20
-140.33333333333331
 11
-42.0
 21
-141.66666666666669
 72
1
 10
-42.0
 20
-141.66666666666669
 11
-42.333333333333343
 21
-143.0
 72
1
 10
-42.333333333333343
 20
-143.0
 11
-43.0
 21
-144.0
 72
1
 10
-43.0
 20
-144.0
 11
-43.666666666666657
 21
-145.33333333333331
 72
1
 10
-43.666666666666657
 20
-145.33333333333331
 11
-44.333333333333343
 21
-146.66666666666669
 72
1
 10
-44.333333333333343
 20
-146.66666666666669
 11
-44.666666666666657
 21
-147.66666666666669
 72
1
 10
-44.666666666666657
 20
-147.66666666666669
 11
-45.333333333333343
 21
-149.0
 72
1
 10
-45.333333333333343
 20
-149.0
 11
-46.0
 21
-150.33333333333331
 72
1
 10
-46.0
 20
-150.33333333333331
 11
-46.666666666666657
 21
-151.33333333333331
 72
1
 10
-46.666666666666657
 20
-151.33333333333331
 11
-47.333333333333343
 21
-152.33333333333331
 72
1
 10
-47.333333333333343
 20
-152.33333333333331
 11
-48.333333333333343
 21
-153.66666666666669
 72
1
 10
-48.333333333333343
 20
-153.66666666666669
 11
-49.0
 21
-154.66666666666669
 72
1
 10
-49.0
 20
-154.66666666666669
 11
-49.666666666666657
 21
-155.66666666666669
 72
1
 10
-49.666666666666657
 20
-155.66666666666669
 11
-50.333333333333343
 21
-156.66666666666669
 72
1
 10
-50.333333333333343
 20
-156.66666666666669
 11
-51.333333333333343
 21
-158.0
 72
1
 10
-51.333333333333343
 20
-158.0
 11
-52.0
 21
-159.0
 72
1
 10
-52.0
 20
-159.0
 11
-53.0
 21
-160.0
 72
1
 10
-53.0
 20
-160.0
 11
-54.0
 21
-161.0
 72
1
 10
-54.0
 20
-161.0
 11
-54.666666666666657
 21
-162.0
 72
1
 10
-54.666666666666657
 20
-162.0
 11
-55.666666666666657
 21
-162.66666666666669
 72
1
 10
-55.666666666666657
 20
-162.66666666666669
 11
-56.666666666666657
 21
-163.66666666666669
 72
1
 10
-56.666666666666657
 20
-163.66666666666669
 11
-57.666666666666657
 21
-164.66666666666669
 72
1
 10
-57.666666666666657
 20
-164.66666666666669
 11
-58.666666666666657
 21
-165.66666666666669
 72
1
 10
-58.666666666666657
 20
-165.66666666666669
 11
-59.666666666666657
 21
-166.33333333333331
 72
1
 10
-59.666666666666657
 20
-166.33333333333331
 11
-60.666666666666657
 21
-167.33333333333331
 72
1
 10
-60.666666666666657
 20
-167.33333333333331
 11
-61.666666666666657
 21
-168.0
 72
1
 10
-61.666666666666657
 20
-168.0
 11
-62.666666666666657
 21
-169.0
 72
1
 10
-62.666666666666657
 20
-169.0
 11
-63.666666666666657
 21
-169.66666666666669
 72
1
 10
-63.666666666666657
 20
-169.66666666666669
 11
-64.666666666666657
 21
-170.33333333333331
 72
1
 10
-64.666666666666657
 20
-170.33333333333331
 11
-66.0
 21
-171.33333333333331
 72
1
 10
-66.0
 20
-171.33333333333331
 11
-67.0
 21
-172.0
 72
1
 10
-67.0
 20
-172.0
 11
-68.333333333333343
 21
-172.66666666666669
 72
1
 10
-68.333333333333343
 20
-172.66666666666669
 11
-69.333333333333343
 21
-173.33333333333331
 72
1
 10
-69.333333333333343
 20
-173.33333333333331
 11
-70.666666666666657
 21
-174.0
 72
1
 10
-70.666666666666657
 20
-174.0
 11
-71.666666666666657
 21
-174.66666666666669
 72
1
 10
-71.666666666666657
 20
-174.66666666666669
 11
-73.0
 21
-175.33333333333331
 72
1
 10
-73.0
 20
-175.33333333333331
 11
-74.333333333333343
 21
-175.66666666666669
 72
1
 10
-74.333333333333343
 20
-175.66666666666669
 11
-75.666666666666657
 21
-176.33333333333331
 72
1
 10
-75.666666666666657
 20
-176.33333333333331
 11
-77.0
 21
-177.0
 72
1
 10
-77.0
 20
-177.0
 11
-78.0
 21
-177.33333333333331
 72
1
 10
-78.0
 20
-177.33333333333331
 11
-79.333333333333343
 21
-178.0
 72
1
 10
-79.333333333333343
 20
-178.0
 11
-80.666666666666657
 21
-178.33333333333331
 72
1
 10
-80.666666666666657
 20
-178.33333333333331
 11
-82.333333333333343
 21
-178.66666666666669
 72
1
 10
-82.333333333333343
 20
-178.66666666666669
 11
-83.666666666666657
 21
-179.33333333333331
 72
1
 10
-83.666666666666657
 20
-179.33333333333331
 11
-85.0
 21
-179.66666666666669
 72
1
 10
-85.0
 20
-179.66666666666669
 11
-86.333333333333343
 21
-180.0
 72
1
 10
-86.333333333333343
 20
-180.0
 11
-87.666666666666657
 21
-180.33333333333331
 72
1
 10
-87.666666666666657
 20
-180.33333333333331
 11
-89.333333333333343
 21
-180.66666666666669
 72
1
 10
-89.333333333333343
 20
-180.66666666666669
 11
-90.666666666666657
 21
-181.0
 72
1
 10
-90.666666666666657
 20
-181.0
 11
-92.333333333333343
 21
-181.33333333333331
 72
1
 10
-92.333333333333343
 20
-181.33333333333331
 11
-93.666666666666657
 21
-181.33333333333331
 72
1
 10
-93.666666666666657
 20
-181.33333333333331
 11
-95.333333333333343
 21
-181.66666666666669
 72
1
 10
-95.333333333333343
 20
-181.66666666666669
 11
-96.666666666666657
 21
-181.66666666666669
 72
1
 10
-96.666666666666657
 20
-181.66666666666669
 11
-98.333333333333329
 21
-182.0
 72
1
 10
-98.333333333333329
 20
-182.0
 11
-100.0
 21
-182.0
 72
1
 10
-100.0
 20
-182.0
 11
-101.33333333333333
 21
-182.33333333333331
 72
1
 10
-101.33333333333333
 20
-182.33333333333331
 11
-103.0
 21
-182.33333333333331
 72
1
 10
-103.0
 20
-182.33333333333331
 11
-104.66666666666667
 21
-182.33333333333331
 72
1
 10
-104.66666666666667
 20
-182.33333333333331
 11
-106.33333333333333
 21
-182.33333333333331
 72
1
 10
-106.33333333333333
 20
-182.33333333333331
 11
-165.33333333333334
 21
-182.33333333333331
 72
1
 10
-165.33333333333334
 20
-182.33333333333331
 11
-165.33333333333334
 21
-136.33333333333331
 72
1
 10
-165.33333333333334
 20
-136.33333333333331
 11
-116.66666666666667
 21
-136.33333333333331
 72
1
 10
-116.66666666666667
 20
-136.33333333333331
 11
-115.0
 21
-136.0
 72
1
 10
-115.0
 20
-136.0
 11
-113.33333333333333
 21
-136.0
 72
1
 10
-113.33333333333333
 20
-136.0
 11
-111.66666666666667
 21
-135.66666666666669
 72
1
 10
-111.66666666666667
 20
-135.66666666666669
 11
-110.0
 21
-135.66666666666669
 72
1
 10
-110.0
 20
-135.66666666666669
 11
-108.33333333333333
 21
-135.0
 72
1
 10
-108.33333333333333
 20
-135.0
 11
-106.33333333333333
 21
-134.66666666666669
 72
1
 10
-106.33333333333333
 20
-134.66666666666669
 11
-104.66666666666667
 21
-134.0
 72
1
 10
-104.66666666666667
 20
-134.0
 11
-102.66666666666667
 21
-133.0
 72
1
 10
-102.66666666666667
 20
-133.0
 11
-102.0
 21
-132.33333333333331
 72
1
 10
-102.0
 20
-132.33333333333331
 11
-101.0
 21
-132.0
 72
1
 10
-101.0
 20
-132.0
 11
-100.33333333333333
 21
-131.33333333333331
 72
1
 10
-100.33333333333333
 20
-131.33333333333331
 11
-99.666666666666671
 21
-130.66666666666669
 72
1
 10
-99.666666666666671
 20
-130.66666666666669
 11
-99.0
 21
-130.0
 72
1
 10
-99.0
 20
-130.0
 11
-98.0
 21
-129.33333333333331
 72
1
 10
-98.0
 20
-129.33333333333331
 11
-97.666666666666657
 21
-128.33333333333331
 72
1
 10
-97.666666666666657
 20
-128.33333333333331
 11
-97.0
 21
-127.66666666666669
 72
1
 10
-97.0
 20
-127.66666666666669
 11
-96.333333333333343
 21
-126.66666666666669
 72
1
 10
-96.333333333333343
 20
-126.66666666666669
 11
-96.0
 21
-125.66666666666669
 72
1
 10
-96.0
 20
-125.66666666666669
 11
-95.333333333333343
 21
-124.66666666666669
 72
1
 10
-95.333333333333343
 20
-124.66666666666669
 11
-95.0
 21
-123.33333333333331
 72
1
 10
-95.0
 20
-123.33333333333331
 11
-94.666666666666657
 21
-122.33333333333331
 72
1
 10
-94.666666666666657
 20
-122.33333333333331
 11
-94.666666666666657
 21
-121.0
 72
1
 10
-94.666666666666657
 20
-121.0
 11
-94.333333333333343
 21
-119.66666666666669
 72
1
 10
-94.333333333333343
 20
-119.66666666666669
 11
-94.333333333333343
 21
-118.33333333333331
 97
0
 75
0
 76
1
 98
0
  0
HATCH
  5
4C
  8
H
 62
250
370
-1
  6
CONTINUOUS
100
AcDbEntity
100
AcDbHatch
 10
0.0
 20
0.0
 30
0.0
210
0.0
220
0.0
230
1.0
  2
SOLID
 70
1
 71
0
 91
1
 92
1
 93
100
 72
1
 10
159.0
 20
-64.666666666666686
 11
182.66666666666669
 21
-64.666666666666686
 72
1
 10
182.66666666666669
 20
-64.666666666666686
 11
184.0
 21
-64.666666666666686
 72
1
 10
184.0
 20
-64.666666666666686
 11
185.33333333333331
 21
-64.666666666666686
 72
1
 10
185.33333333333331
 20
-64.666666666666686
 11
186.66666666666669
 21
-64.666666666666686
 72
1
 10
186.66666666666669
 20
-64.666666666666686
 11
187.66666666666669
 21
-64.666666666666686
 72
1
 10
187.66666666666669
 20
-64.666666666666686
 11
188.66666666666669
 21
-65.0
 72
1
 10
188.66666666666669
 20
-65.0
 11
190.0
 21
-65.0
 72
1
 10
190.0
 20
-65.0
 11
191.0
 21
-65.0
 72
1
 10
191.0
 20
-65.0
 11
192.0
 21
-65.0
 72
1
 10
192.0
 20
-65.0
 11
192.66666666666669
 21
-65.333333333333314
 72
1
 10
192.66666666666669
 20
-65.333333333333314
 11
193.66666666666669
 21
-65.333333333333314
 72
1
 10
193.66666666666669
 20
-65.333333333333314
 11
195.33333333333331
 21
-65.666666666666686
 72
1
 10
195.33333333333331
 20
-65.666666666666686
 11
196.66666666666669
 21
-66.0
 72
1
 10
196.66666666666669
 20
-66.0
 11
198.0
 21
-66.666666666666686
 72
1
 10
198.0
 20
-66.666666666666686
 11
199.66666666666669
 21
-67.333333333333314
 72
1
 10
199.66666666666669
 20
-67.333333333333314
 11
201.0
 21
-68.333333333333314
 72
1
 10
201.0
 20
-68.333333333333314
 11
202.33333333333331
 21
-69.333333333333314
 72
1
 10
202.33333333333331
 20
-69.333333333333314
 11
203.66666666666669
 21
-70.333333333333314
 72
1
 10
203.66666666666669
 20
-70.333333333333314
 11
204.66666666666669
 21
-71.666666666666686
 72
1
 10
204.66666666666669
 20
-71.666666666666686
 11
205.66666666666669
 21
-73.0
 72
1
 10
205.66666666666669
 20
-73.0
 11
206.33333333333331
 21
-74.333333333333314
 72
1
 10
206.33333333333331
 20
-74.333333333333314
 11
207.33333333333331
 21
-76.0
 72
1
 10
207.33333333333331
 20
-76.0
 11
208.0
 21
-77.666666666666686
 72
1
 10
208.0
 20
-77.666666666666686
 11
208.33333333333331
 21
-79.666666666666686
 72
1
 10
208.33333333333331
 20
-79.666666666666686
 11
208.66666666666669
 21
-81.333333333333314
 72
1
 10
208.66666666666669
 20
-81.333333333333314
 11
208.66666666666669
 21
-82.333333333333314
 72
1
 10
208.66666666666669
 20
-82.333333333333314
 11
208.66666666666669
 21
-83.333333333333314
 72
1
 10
208.66666666666669
 20
-83.333333333333314
 11
208.66666666666669
 21
-85.0
 72
1
 10
208.66666666666669
 20
-85.0
 11
208.33333333333331
 21
-87.0
 72
1
 10
208.33333333333331
 20
-87.0
 11
208.0
 21
-88.333333333333314
 72
1
 10
208.0
 20
-88.333333333333314
 11
207.66666666666669
 21
-90.0
 72
1
 10
207.66666666666669
 20
-90.0
 11
207.0
 21
-91.333333333333314
 72
1
 10
207.0
 20
-91.333333333333314
 11
206.33333333333331
 21
-92.666666666666686
 72
1
 10
206.33333333333331
 20
-92.666666666666686
 11
205.66666666666669
 21
-94.0
 72
1
 10
205.66666666666669
 20
-94.0
 11
204.66666666666669
 21
-95.333333333333314
 72
1
 10
204.66666666666669
 20
-95.333333333333314
 11
203.66666666666669
 21
-96.333333333333314
 72
1
 10
203.66666666666669
 20
-96.333333333333314
 11
202.66666666666669
 21
-97.333333333333314
 72
1
 10
202.66666666666669
 20
-97.333333333333314
 11
201.66666666666669
 21
-98.0
 72
1
 10
201.66666666666669
 20
-98.0
 11
200.33333333333331
 21
-98.666666666666686
 72
1
 10
200.33333333333331
 20
-98.666666666666686
 11
199.0
 21
-99.0
 72
1
 10
199.0
 20
-99.0
 11
197.66666666666669
 21
-99.666666666666686
 72
1
 10
197.66666666666669
 20
-99.666666666666686
 11
196.0
 21
-100.0
 72
1
 10
196.0
 20
-100.0
 11
195.0
 21
-100.33333333333331
 72
1
 10
195.0
 20
-100.33333333333331
 11
194.0
 21
-100.66666666666669
 72
1
 10
194.0
 20
-100.66666666666669
 11
195.66666666666669
 21
-101.0
 72
1
 10
195.66666666666669
 20
-101.0
 11
197.0
 21
-101.33333333333331
 72
1
 10
197.0
 20
-101.33333333333331
 11
198.0
 21
-101.66666666666669
 72
1
 10
198.0
 20
-101.66666666666669
 11
199.0
 21
-102.33333333333331
 72
1
 10
199.0
 20
-102.33333333333331
 11
200.0
 21
-102.66666666666669
 72
1
 10
200.0
 20
-102.66666666666669
 11
200.66666666666669
 21
-103.33333333333331
 72
1
 10
200.66666666666669
 20
-103.33333333333331
 11
201.66666666666669
 21
-104.0
 72
1
 10
201.66666666666669
 20
-104.0
 11
202.33333333333331
 21
-104.66666666666669
 72
1
 10
202.33333333333331
 20
-104.66666666666669
 11
203.0
 21
-105.66666666666669
 72
1
 10
203.0
 20
-105.66666666666669
 11
203.66666666666669
 21
-107.0
 72
1
 10
203.66666666666669
 20
-107.0
 11
204.33333333333331
 21
-108.0
 72
1
 10
204.33333333333331
 20
-108.0
 11
204.66666666666669
 21
-109.33333333333331
 72
1
 10
204.66666666666669
 20
-109.33333333333331
 11
205.0
 21
-111.0
 72
1
 10
205.0
 20
-111.0
 11
205.33333333333331
 21
-112.33333333333331
 72
1
 10
205.33333333333331
 20
-112.33333333333331
 11
205.66666666666669
 21
-114.0
 72
1
 10
205.66666666666669
 20
-114.0
 11
205.66666666666669
 21
-116.0
 72
1
 10
205.66666666666669
 20
-116.0
 11
205.66666666666669
 21
-134.33333333333331
 72
1
 10
205.66666666666669
 20
-134.33333333333331
 11
186.33333333333331
 21
-134.33333333333331
 72
1
 10
186.33333333333331
 20
-134.33333333333331
 11
186.33333333333331
 21
-118.0
 72
1
 10
186.33333333333331
 20
-118.0
 11
186.33333333333331
 21
-116.66666666666669
 72
1
 10
186.33333333333331
 20
-116.66666666666669
 11
186.33333333333331
 21
-115.33333333333331
 72
1
 10
186.33333333333331
 20
-115.33333333333331
 11
186.0
 21
-114.33333333333331
 72
1
 10
186.0
 20
-114.33333333333331
 11
186.0
 21
-113.33333333333331
 72
1
 10
186.0
 20
-113.33333333333331
 11
185.66666666666669
 21
-112.33333333333331
 72
1
 10
185.66666666666669
 20
-112.33333333333331
 11
185.0
 21
-111.66666666666669
 72
1
 10
185.0
 20
-111.66666666666669
 11
184.0
 21
-110.33333333333331
 72
1
 10
184.0
 20
-110.33333333333331
 11
183.33333333333331
 21
-109.66666666666669
 72
1
 10
183.33333333333331
 20
-109.66666666666669
 11
182.66666666666669
 21
-109.33333333333331
 72
1
 10
182.66666666666669
 20
-109.33333333333331
 11
181.66666666666669
 21
-109.0
 72
1
 10
181.66666666666669
 20
-109.0
 11
180.66666666666669
 21
-108.66666666666669
 72
1
 10
180.66666666666669
 20
-108.66666666666669
 11
179.33333333333331
 21
-108.33333333333331
 72
1
 10
179.33333333333331
 20
-108.33333333333331
 11
178.0
 21
-108.33333333333331
 72
1
 10
178.0
 20
-108.33333333333331
 11
176.66666666666669
 21
-108.33333333333331
 72
1
 10
176.66666666666669
 20
-108.33333333333331
 11
175.0
 21
-108.33333333333331
 72
1
 10
175.0
 20
-108.33333333333331
 11
159.0
 21
-108.33333333333331
 72
1
 10
159.0
 20
-108.33333333333331
 11
159.0
 21
-91.333333333333314
 72
1
 10
159.0
 20
-91.333333333333314
 11
181.33333333333331
 21
-91.333333333333314
 72
1
 10
181.33333333333331
 20
-91.333333333333314
 11
182.66666666666669
 21
-91.333333333333314
 72
1
 10
182.66666666666669
 20
-91.333333333333314
 11
183.66666666666669
 21
-91.333333333333314
 72
1
 10
183.66666666666669
 20
-91.333333333333314
 11
184.66666666666669
 21
-91.333333333333314
 72
1
 10
184.66666666666669
 20
-91.333333333333314
 11
185.33333333333331
 21
-91.0
 72
1
 10
185.33333333333331
 20
-91.0
 11
186.66666666666669
 21
-90.333333333333314
 72
1
 10
186.66666666666669
 20
-90.333333333333314
 11
187.66666666666669
 21
-89.666666666666686
 72
1
 10
187.66666666666669
 20
-89.666666666666686
 11
188.66666666666669
 21
-88.333333333333314
 72
1
 10
188.66666666666669
 20
-88.333333333333314
 11
188.66666666666669
 21
-87.333333333333314
 72
1
 10
188.66666666666669
 20
-87.333333333333314
 11
189.0
 21
-86.333333333333314
 72
1
 10
189.0
 20
-86.333333333333314
 11
188.66666666666669
 21
-85.333333333333314
 72
1
 10
188.66666666666669
 20
-85.333333333333314
 11
188.33333333333331
 21
-84.333333333333314
 72
1
 10
188.33333333333331
 20
-84.333333333333314
 11
188.0
 21
-83.333333333333314
 72
1
 10
188.0
 20
-83.333333333333314
 11
187.33333333333331
 21
-82.666666666666686
 72
1
 10
187.33333333333331
 20
-82.666666666666686
 11
186.33333333333331
 21
-82.0
 72
1
 10
186.33333333333331
 20
-82.0
 11
185.0
 21
-81.666666666666686
 72
1
 10
185.0
 20
-81.666666666666686
 11
183.66666666666669
 21
-81.333333333333314
 72
1
 10
183.66666666666669
 20
-81.333333333333314
 11
182.0
 21
-81.333333333333314
 72
1
 10
182.0
 20
-81.333333333333314
 11
159.0
 21
-81.333333333333314
 72
1
 10
159.0
 20
-81.333333333333314
 11
159.0
 21
-64.666666666666686
 97
0
 75
0
 76
1
 98
0
  0
HATCH
  5
4D
  8
H
 62
250
370
-1
  6
CONTINUOUS
100
AcDbEntity
100
AcDbHatch
 10
0.0
 20
0.0
 30
0.0
210
0.0
220
0.0
230
1.0
  2
SOLID
 70
1
 71
0
 91
1
 92
1
 93
4
 72
1
 10
152.66666666666669
 20
-64.666666666666686
 11
152.66666666666669
 21
-81.333333333333314
 72
1
 10
152.66666666666669
 20
-81.333333333333314
 11
105.66666666666669
 21
-81.333333333333314
 72
1
 10
105.66666666666669
 20
-81.333333333333314
 11
105.66666666666669
 21
-64.666666666666686
 72
1
 10
105.66666666666669
 20
-64.666666666666686
 11
152.66666666666669
 21
-64.666666666666686
 97
0
 75
0
 76
1
 98
0
  0
HATCH
  5
4E
  8
H
 62
250
370
-1
  6
CONTINUOUS
100
AcDbEntity
100
AcDbHatch
 10
0.0
 20
0.0
 30
0.0
210
0.0
220
0.0
230
1.0
  2
SOLID
 70
1
 71
0
 91
1
 92
1
 93
8
 72
1
 10
152.66666666666669
 20
-91.333333333333314
 11
152.66666666666669
 21
-108.33333333333331
 72
1
 10
152.66666666666669
 20
-108.33333333333331
 11
125.0
 21
-108.33333333333331
 72
1
 10
125.0
 20
-108.33333333333331
 11
125.0
 21
-117.66666666666669
 72
1
 10
125.0
 20
-117.66666666666669
 11
152.66666666666669
 21
-117.66666666666669
 72
1
 10
152.66666666666669
 20
-117.66666666666669
 11
152.66666666666669
 21
-134.33333333333331
 72
1
 10
152.66666666666669
 20
-134.33333333333331
 11
105.66666666666669
 21
-134.33333333333331
 72
1
 10
105.66666666666669
 20
-134.33333333333331
 11
105.66666666666669
 21
-91.333333333333314
 72
1
 10
105.66666666666669
 20
-91.333333333333314
 11
152.66666666666669
 21
-91.333333333333314
 97
0
 75
0
 76
1
 98
0
  0
HATCH
  5
4F
  8
H
 62
250
370
-1
  6
CONTINUOUS
100
AcDbEntity
100
AcDbHatch
 10
0.0
 20
0.0
 30
0.0
210
0.0
220
0.0
230
1.0
  2
SOLID
 70
1
 71
0
 91
1
 92
1
 93
4
 72
1
 10
99.666666666666686
 20
-64.666666666666686
 11
99.666666666666686
 21
-81.333333333333314
 72
1
 10
99.666666666666686
 20
-81.333333333333314
 11
52.333333333333314
 21
-81.333333333333314
 72
1
 10
52.333333333333314
 20
-81.333333333333314
 11
52.333333333333314
 21
-64.666666666666686
 72
1
 10
52.333333333333314
 20
-64.666666666666686
 11
99.666666666666686
 21
-64.666666666666686
 97
0
 75
0
 76
1
 98
0
  0
HATCH
  5
50
  8
H
 62
250
370
-1
  6
CONTINUOUS
100
AcDbEntity
100
AcDbHatch
 10
0.0
 20
0.0
 30
0.0
210
0.0
220
0.0
230
1.0
  2
SOLID
 70
1
 71
0
 91
1
 92
1
 93
6
 72
1
 10
99.666666666666686
 20
-91.333333333333314
 11
99.666666666666686
 21
-108.33333333333331
 72
1
 10
99.666666666666686
 20
-108.33333333333331
 11
71.666666666666686
 21
-108.33333333333331
 72
1
 10
71.666666666666686
 20
-108.33333333333331
 11
71.666666666666686
 21
-134.33333333333331
 72
1
 10
71.666666666666686
 20
-134.33333333333331
 11
52.333333333333314
 21
-134.33333333333331
 72
1
 10
52.333333333333314
 20
-134.33333333333331
 11
52.333333333333314
 21
-91.333333333333314
 72
1
 10
52.333333333333314
 20
-91.333333333333314
 11
99.666666666666686
 21
-91.333333333333314
 97
0
 75
0
 76
1
 98
0
  0
HATCH
  5
51
  8
H
 62
250
370
-1
  6
CONTINUOUS
100
AcDbEntity
100
AcDbHatch
 10
0.0
 20
0.0
 30
0.0
210
0.0
220
0.0
230
1.0
  2
SOLID
 70
1
 71
0
 91
1
 92
1
 93
280
 72
1
 10
8.0
 20
-77.333333333333314
 11
6.6666666666666572
 21
-77.333333333333314
 72
1
 10
6.6666666666666572
 20
-77.333333333333314
 11
5.6666666666666572
 21
-77.333333333333314
 72
1
 10
5.6666666666666572
 20
-77.333333333333314
 11
4.6666666666666572
 21
-77.666666666666686
 72
1
 10
4.6666666666666572
 20
-77.666666666666686
 11
3.6666666666666572
 21
-77.666666666666686
 72
1
 10
3.6666666666666572
 20
-77.666666666666686
 11
2.0
 21
-78.333333333333314
 72
1
 10
2.0
 20
-78.333333333333314
 11
0.3333333333333428
 21
-79.0
 72
1
 10
0.3333333333333428
 20
-79.0
 11
-1.3333333333333428
 21
-79.666666666666686
 72
1
 10
-1.3333333333333428
 20
-79.666666666666686
 11
-2.6666666666666572
 21
-81.0
 72
1
 10
-2.6666666666666572
 20
-81.0
 11
-4.0
 21
-82.333333333333314
 72
1
 10
-4.0
 20
-82.333333333333314
 11
-5.3333333333333428
 21
-83.666666666666686
 72
1
 10
-5.3333333333333428
 20
-83.666666666666686
 11
-6.3333333333333428
 21
-85.333333333333314
 72
1
 10
-6.3333333333333428
 20
-85.333333333333314
 11
-7.0
 21
-86.666666666666686
 72
1
 10
-7.0
 20
-86.666666666666686
 11
-8.0
 21
-88.666666666666686
 72
1
 10
-8.0
 20
-88.666666666666686
 11
-8.0
 21
-89.666666666666686
 72
1
 10
-8.0
 20
-89.666666666666686
 11
-8.3333333333333428
 21
-90.333333333333314
 72
1
 10
-8.3333333333333428
 20
-90.333333333333314
 11
-8.6666666666666572
 21
-91.333333333333314
 72
1
 10
-8.6666666666666572
 20
-91.333333333333314
 11
-9.0
 21
-92.333333333333314
 72
1
 10
-9.0
 20
-92.333333333333314
 11
-9.0
 21
-93.666666666666686
 72
1
 10
-9.0
 20
-93.666666666666686
 11
-9.3333333333333428
 21
-94.666666666666686
 72
1
 10
-9.3333333333333428
 20
-94.666666666666686
 11
-9.3333333333333428
 21
-95.666666666666686
 72
1
 10
-9.3333333333333428
 20
-95.666666666666686
 11
-9.3333333333333428
 21
-97.0
 72
1
 10
-9.3333333333333428
 20
-97.0
 11
-9.3333333333333428
 21
-98.0
 72
1
 10
-9.3333333333333428
 20
-98.0
 11
-9.3333333333333428
 21
-99.333333333333314
 72
1
 10
-9.3333333333333428
 20
-99.333333333333314
 11
-9.3333333333333428
 21
-100.33333333333331
 72
1
 10
-9.3333333333333428
 20
-100.33333333333331
 11
-9.3333333333333428
 21
-101.66666666666669
 72
1
 10
-9.3333333333333428
 20
-101.66666666666669
 11
-9.3333333333333428
 21
-103.0
 72
1
 10
-9.3333333333333428
 20
-103.0
 11
-9.3333333333333428
 21
-104.0
 72
1
 10
-9.3333333333333428
 20
-104.0
 11
-9.0
 21
-105.33333333333331
 72
1
 10
-9.0
 20
-105.33333333333331
 11
-8.6666666666666572
 21
-106.33333333333331
 72
1
 10
-8.6666666666666572
 20
-106.33333333333331
 11
-8.6666666666666572
 21
-107.33333333333331
 72
1
 10
-8.6666666666666572
 20
-107.33333333333331
 11
-8.3333333333333428
 21
-108.33333333333331
 72
1
 10
-8.3333333333333428
 20
-108.33333333333331
 11
-8.0
 21
-109.66666666666669
 72
1
 10
-8.0
 20
-109.66666666666669
 11
-7.6666666666666572
 21
-110.66666666666669
 72
1
 10
-7.6666666666666572
 20
-110.66666666666669
 11
-7.3333333333333428
 21
-111.33333333333331
 72
1
 10
-7.3333333333333428
 20
-111.33333333333331
 11
-6.6666666666666572
 21
-112.33333333333331
 72
1
 10
-6.6666666666666572
 20
-112.33333333333331
 11
-6.3333333333333428
 21
-113.33333333333331
 72
1
 10
-6.3333333333333428
 20
-113.33333333333331
 11
-5.6666666666666572
 21
-114.0
 72
1
 10
-5.6666666666666572
 20
-114.0
 11
-5.3333333333333428
 21
-115.0
 72
1
 10
-5.3333333333333428
 20
-115.0
 11
-4.6666666666666572
 21
-115.66666666666669
 72
1
 10
-4.6666666666666572
 20
-115.66666666666669
 11
-3.3333333333333428
 21
-117.0
 72
1
 10
-3.3333333333333428
 20
-117.0
 11
-2.3333333333333428
 21
-118.33333333333331
 72
1
 10
-2.3333333333333428
 20
-118.33333333333331
 11
-0.6666666666666572
 21
-119.33333333333331
 72
1
 10
-0.6666666666666572
 20
-119.33333333333331
 11
0.6666666666666572
 21
-120.0
 72
1
 10
0.6666666666666572
 20
-120.0
 11
2.3333333333333428
 21
-120.66666666666669
 72
1
 10
2.3333333333333428
 20
-120.66666666666669
 11
4.3333333333333428
 21
-121.0
 72
1
 10
4.3333333333333428
 20
-121.0
 11
5.0
 21
-121.33333333333331
 72
1
 10
5.0
 20
-121.33333333333331
 11
6.0
 21
-121.33333333333331
 72
1
 10
6.0
 20
-121.33333333333331
 11
7.0
 21
-121.33333333333331
 72
1
 10
7.0
 20
-121.33333333333331
 11
8.0
 21
-121.33333333333331
 72
1
 10
8.0
 20
-121.33333333333331
 11
9.3333333333333428
 21
-121.33333333333331
 72
1
 10
9.3333333333333428
 20
-121.33333333333331
 11
10.333333333333343
 21
-121.33333333333331
 72
1
 10
10.333333333333343
 20
-121.33333333333331
 11
11.333333333333343
 21
-121.33333333333331
 72
1
 10
11.333333333333343
 20
-121.33333333333331
 11
12.333333333333343
 21
-121.0
 72
1
 10
12.333333333333343
 20
-121.0
 11
13.333333333333343
 21
-120.66666666666669
 72
1
 10
13.333333333333343
 20
-120.66666666666669
 11
14.333333333333343
 21
-120.33333333333331
 72
1
 10
14.333333333333343
 20
-120.33333333333331
 11
16.0
 21
-119.66666666666669
 72
1
 10
16.0
 20
-119.66666666666669
 11
17.666666666666657
 21
-118.66666666666669
 72
1
 10
17.666666666666657
 20
-118.66666666666669
 11
19.0
 21
-117.66666666666669
 72
1
 10
19.0
 20
-117.66666666666669
 11
20.333333333333343
 21
-116.33333333333331
 72
1
 10
20.333333333333343
 20
-116.33333333333331
 11
21.0
 21
-115.33333333333331
 72
1
 10
21.0
 20
-115.33333333333331
 11
21.666666666666657
 21
-114.66666666666669
 72
1
 10
21.666666666666657
 20
-114.66666666666669
 11
22.666666666666657
 21
-113.0
 72
1
 10
22.666666666666657
 20
-113.0
 11
23.333333333333343
 21
-111.33333333333331
 72
1
 10
23.333333333333343
 20
-111.33333333333331
 11
24.0
 21
-109.66666666666669
 72
1
 10
24.0
 20
-109.66666666666669
 11
24.333333333333343
 21
-108.0
 72
1
 10
24.333333333333343
 20
-108.0
 11
24.666666666666657
 21
-107.0
 72
1
 10
24.666666666666657
 20
-107.0
 11
25.0
 21
-106.0
 72
1
 10
25.0
 20
-106.0
 11
25.0
 21
-105.0
 72
1
 10
25.0
 20
-105.0
 11
25.333333333333343
 21
-104.0
 72
1
 10
25.333333333333343
 20
-104.0
 11
25.333333333333343
 21
-103.0
 72
1
 10
25.333333333333343
 20
-103.0
 11
25.333333333333343
 21
-102.0
 72
1
 10
25.333333333333343
 20
-102.0
 11
25.333333333333343
 21
-100.66666666666669
 72
1
 10
25.333333333333343
 20
-100.66666666666669
 11
25.333333333333343
 21
-99.666666666666686
 72
1
 10
25.333333333333343
 20
-99.666666666666686
 11
25.333333333333343
 21
-98.333333333333314
 72
1
 10
25.333333333333343
 20
-98.333333333333314
 11
25.333333333333343
 21
-97.0
 72
1
 10
25.333333333333343
 20
-97.0
 11
25.333333333333343
 21
-95.666666666666686
 72
1
 10
25.333333333333343
 20
-95.666666666666686
 11
25.0
 21
-94.666666666666686
 72
1
 10
25.0
 20
-94.666666666666686
 11
25.0
 21
-93.333333333333314
 72
1
 10
25.0
 20
-93.333333333333314
 11
24.666666666666657
 21
-92.333333333333314
 72
1
 10
24.666666666666657
 20
-92.333333333333314
 11
24.333333333333343
 21
-91.0
 72
1
 10
24.333333333333343
 20
-91.0
 11
24.333333333333343
 21
-90.0
 72
1
 10
24.333333333333343
 20
-90.0
 11
23.666666666666657
 21
-89.0
 72
1
 10
23.666666666666657
 20
-89.0
 11
23.333333333333343
 21
-88.0
 72
1
 10
23.333333333333343
 20
-88.0
 11
23.0
 21
-87.0
 72
1
 10
23.0
 20
-87.0
 11
22.666666666666657
 21
-86.333333333333314
 72
1
 10
22.666666666666657
 20
-86.333333333333314
 11
22.0
 21
-85.333333333333314
 72
1
 10
22.0
 20
-85.333333333333314
 11
21.666666666666657
 21
-84.333333333333314
 72
1
 10
21.666666666666657
 20
-84.333333333333314
 11
21.0
 21
-83.666666666666686
 72
1
 10
21.0
 20
-83.666666666666686
 11
20.333333333333343
 21
-83.0
 72
1
 10
20.333333333333343
 20
-83.0
 11
19.0
 21
-81.666666666666686
 72
1
 10
19.0
 20
-81.666666666666686
 11
18.0
 21
-80.666666666666686
 72
1
 10
18.0
 20
-80.666666666666686
 11
16.333333333333343
 21
-79.666666666666686
 72
1
 10
16.333333333333343
 20
-79.666666666666686
 11
15.0
 21
-78.666666666666686
 72
1
 10
15.0
 20
-78.666666666666686
 11
13.333333333333343
 21
-78.333333333333314
 72
1
 10
13.333333333333343
 20
-78.333333333333314
 11
11.666666666666657
 21
-77.666666666666686
 72
1
 10
11.666666666666657
 20
-77.666666666666686
 11
9.6666666666666572
 21
-77.333333333333314
 72
1
 10
9.6666666666666572
 20
-77.333333333333314
 11
8.6666666666666572
 21
-77.333333333333314
 72
1
 10
8.6666666666666572
 20
-77.333333333333314
 11
8.0
 21
-77.333333333333314
 72
1
 10
8.0
 20
-77.333333333333314
 11
7.6666666666666572
 21
-60.0
 72
1
 10
7.6666666666666572
 20
-60.0
 11
9.0
 21
-60.0
 72
1
 10
9.0
 20
-60.0
 11
10.333333333333343
 21
-60.0
 72
1
 10
10.333333333333343
 20
-60.0
 11
11.333333333333343
 21
-60.0
 72
1
 10
11.333333333333343
 20
-60.0
 11
12.666666666666657
 21
-60.0
 72
1
 10
12.666666666666657
 20
-60.0
 11
14.0
 21
-60.333333333333314
 72
1
 10
14.0
 20
-60.333333333333314
 11
15.0
 21
-60.333333333333314
 72
1
 10
15.0
 20
-60.333333333333314
 11
16.333333333333343
 21
-60.666666666666686
 72
1
 10
16.333333333333343
 20
-60.666666666666686
 11
17.666666666666657
 21
-61.0
 72
1
 10
17.666666666666657
 20
-61.0
 11
18.666666666666657
 21
-61.333333333333314
 72
1
 10
18.666666666666657
 20
-61.333333333333314
 11
20.0
 21
-61.666666666666686
 72
1
 10
20.0
 20
-61.666666666666686
 11
21.0
 21
-62.0
 72
1
 10
21.0
 20
-62.0
 11
22.333333333333343
 21
-62.333333333333314
 72
1
 10
22.333333333333343
 20
-62.333333333333314
 11
23.333333333333343
 21
-62.666666666666686
 72
1
 10
23.333333333333343
 20
-62.666666666666686
 11
24.333333333333343
 21
-63.333333333333314
 72
1
 10
24.333333333333343
 20
-63.333333333333314
 11
25.666666666666657
 21
-63.666666666666686
 72
1
 10
25.666666666666657
 20
-63.666666666666686
 11
26.666666666666657
 21
-64.333333333333314
 72
1
 10
26.666666666666657
 20
-64.333333333333314
 11
28.0
 21
-65.0
 72
1
 10
28.0
 20
-65.0
 11
29.666666666666657
 21
-65.666666666666686
 72
1
 10
29.666666666666657
 20
-65.666666666666686
 11
31.0
 21
-66.666666666666686
 72
1
 10
31.0
 20
-66.666666666666686
 11
32.333333333333314
 21
-67.666666666666686
 72
1
 10
32.333333333333314
 20
-67.666666666666686
 11
33.666666666666686
 21
-68.666666666666686
 72
1
 10
33.666666666666686
 20
-68.666666666666686
 11
34.666666666666686
 21
-69.666666666666686
 72
1
 10
34.666666666666686
 20
-69.666666666666686
 11
36.0
 21
-70.666666666666686
 72
1
 10
36.0
 20
-70.666666666666686
 11
37.0
 21
-71.666666666666686
 72
1
 10
37.0
 20
-71.666666666666686
 11
38.0
 21
-72.666666666666686
 72
1
 10
38.0
 20
-72.666666666666686
 11
39.0
 21
-74.0
 72
1
 10
39.0
 20
-74.0
 11
40.0
 21
-75.333333333333314
 72
1
 10
40.0
 20
-75.333333333333314
 11
41.0
 21
-76.666666666666686
 72
1
 10
41.0
 20
-76.666666666666686
 11
41.666666666666686
 21
-78.0
 72
1
 10
41.666666666666686
 20
-78.0
 11
42.333333333333314
 21
-79.333333333333314
 72
1
 10
42.333333333333314
 20
-79.333333333333314
 11
43.333333333333314
 21
-80.666666666666686
 72
1
 10
43.333333333333314
 20
-80.666666666666686
 11
44.0
 21
-82.333333333333314
 72
1
 10
44.0
 20
-82.333333333333314
 11
44.333333333333314
 21
-83.0
 72
1
 10
44.333333333333314
 20
-83.0
 11
44.666666666666686
 21
-84.0
 72
1
 10
44.666666666666686
 20
-84.0
 11
45.0
 21
-85.0
 72
1
 10
45.0
 20
-85.0
 11
45.333333333333314
 21
-86.0
 72
1
 10
45.333333333333314
 20
-86.0
 11
45.666666666666686
 21
-87.333333333333314
 72
1
 10
45.666666666666686
 20
-87.333333333333314
 11
46.0
 21
-88.333333333333314
 72
1
 10
46.0
 20
-88.333333333333314
 11
46.0
 21
-89.333333333333314
 72
1
 10
46.0
 20
-89.333333333333314
 11
46.333333333333314
 21
-90.333333333333314
 72
1
 10
46.333333333333314
 20
-90.333333333333314
 11
46.666666666666686
 21
-91.666666666666686
 72
1
 10
46.666666666666686
 20
-91.666666666666686
 11
46.666666666666686
 21
-92.666666666666686
 72
1
 10
46.666666666666686
 20
-92.666666666666686
 11
46.666666666666686
 21
-93.666666666666686
 72
1
 10
46.666666666666686
 20
-93.666666666666686
 11
47.0
 21
-95.0
 72
1
 10
47.0
 20
-95.0
 11
47.0
 21
-96.0
 72
1
 10
47.0
 20
-96.0
 11
47.0
 21
-97.333333333333314
 72
1
 10
47.0
 20
-97.333333333333314
 11
47.0
 21
-98.666666666666686
 72
1
 10
47.0
 20
-98.666666666666686
 11
47.0
 21
-99.666666666666686
 72
1
 10
47.0
 20
-99.666666666666686
 11
47.0
 21
-101.0
 72
1
 10
47.0
 20
-101.0
 11
47.0
 21
-102.0
 72
1
 10
47.0
 20
-102.0
 11
47.0
 21
-103.0
 72
1
 10
47.0
 20
-103.0
 11
47.0
 21
-104.0
 72
1
 10
47.0
 20
-104.0
 11
47.0
 21
-105.0
 72
1
 10
47.0
 20
-105.0
 11
46.666666666666686
 21
-106.0
 72
1
 10
46.666666666666686
 20
-106.0
 11
46.666666666666686
 21
-107.0
 72
1
 10
46.666666666666686
 20
-107.0
 11
46.333333333333314
 21
-108.0
 72
1
 10
46.333333333333314
 20
-108.0
 11
46.0
 21
-109.66666666666669
 72
1
 10
46.0
 20
-109.66666666666669
 11
45.666666666666686
 21
-111.66666666666669
 72
1
 10
45.666666666666686
 20
-111.66666666666669
 11
45.0
 21
-113.33333333333331
 72
1
 10
45.0
 20
-113.33333333333331
 11
44.333333333333314
 21
-115.33333333333331
 72
1
 10
44.333333333333314
 20
-115.33333333333331
 11
43.666666666666686
 21
-117.0
 72
1
 10
43.666666666666686
 20
-117.0
 11
43.0
 21
-118.66666666666669
 72
1
 10
43.0
 20
-118.66666666666669
 11
42.0
 21
-120.33333333333331
 72
1
 10
42.0
 20
-120.33333333333331
 11
41.0
 21
-122.0
 72
1
 10
41.0
 20
-122.0
 11
40.0
 21
-123.33333333333331
 72
1
 10
40.0
 20
-123.33333333333331
 11
38.666666666666686
 21
-125.0
 72
1
 10
38.666666666666686
 20
-125.0
 11
37.666666666666686
 21
-126.33333333333331
 72
1
 10
37.666666666666686
 20
-126.33333333333331
 11
36.333333333333314
 21
-128.0
 72
1
 10
36.333333333333314
 20
-128.0
 11
35.0
 21
-129.33333333333331
 72
1
 10
35.0
 20
-129.33333333333331
 11
33.333333333333314
 21
-130.33333333333331
 72
1
 10
33.333333333333314
 20
-130.33333333333331
 11
32.0
 21
-131.66666666666669
 72
1
 10
32.0
 20
-131.66666666666669
 11
30.666666666666686
 21
-132.66666666666669
 72
1
 10
30.666666666666686
 20
-132.66666666666669
 11
29.0
 21
-133.66666666666669
 72
1
 10
29.0
 20
-133.66666666666669
 11
27.333333333333343
 21
-134.66666666666669
 72
1
 10
27.333333333333343
 20
-134.66666666666669
 11
25.666666666666657
 21
-135.33333333333331
 72
1
 10
25.666666666666657
 20
-135.33333333333331
 11
24.0
 21
-136.33333333333331
 72
1
 10
24.0
 20
-136.33333333333331
 11
22.333333333333343
 21
-137.0
 72
1
 10
22.333333333333343
 20
-137.0
 11
20.333333333333343
 21
-137.33333333333331
 72
1
 10
20.333333333333343
 20
-137.33333333333331
 11
18.666666666666657
 21
-138.0
 72
1
 10
18.666666666666657
 20
-138.0
 11
16.666666666666657
 21
-138.33333333333331
 72
1
 10
16.666666666666657
 20
-138.33333333333331
 11
15.666666666666657
 21
-138.33333333333331
 72
1
 10
15.666666666666657
 20
-138.33333333333331
 11
14.666666666666657
 21
-138.66666666666669
 72
1
 10
14.666666666666657
 20
-138.66666666666669
 11
13.666666666666657
 21
-138.66666666666669
 72
1
 10
13.666666666666657
 20
-138.66666666666669
 11
12.666666666666657
 21
-138.66666666666669
 72
1
 10
12.666666666666657
 20
-138.66666666666669
 11
11.666666666666657
 21
-139.0
 72
1
 10
11.666666666666657
 20
-139.0
 11
10.666666666666657
 21
-139.0
 72
1
 10
10.666666666666657
 20
-139.0
 11
9.6666666666666572
 21
-139.0
 72
1
 10
9.6666666666666572
 20
-139.0
 11
8.6666666666666572
 21
-139.0
 72
1
 10
8.6666666666666572
 20
-139.0
 11
7.3333333333333428
 21
-139.0
 72
1
 10
7.3333333333333428
 20
-139.0
 11
6.3333333333333428
 21
-139.0
 72
1
 10
6.3333333333333428
 20
-139.0
 11
5.3333333333333428
 21
-139.0
 72
1
 10
5.3333333333333428
 20
-139.0
 11
4.3333333333333428
 21
-138.66666666666669
 72
1
 10
4.3333333333333428
 20
-138.66666666666669
 11
3.3333333333333428
 21
-138.66666666666669
 72
1
 10
3.3333333333333428
 20
-138.66666666666669
 11
2.3333333333333428
 21
-138.66666666666669
 72
1
 10
2.3333333333333428
 20
-138.66666666666669
 11
1.3333333333333428
 21
-138.33333333333331
 72
1
 10
1.3333333333333428
 20
-138.33333333333331
 11
0.3333333333333428
 21
-138.33333333333331
 72
1
 10
0.3333333333333428
 20
-138.33333333333331
 11
-1.3333333333333428
 21
-138.0
 72
1
 10
-1.3333333333333428
 20
-138.0
 11
-3.3333333333333428
 21
-137.33333333333331
 72
1
 10
-3.3333333333333428
 20
-137.33333333333331
 11
-5.3333333333333428
 21
-137.0
 72
1
 10
-5.3333333333333428
 20
-137.0
 11
-7.0
 21
-136.33333333333331
 72
1
 10
-7.0
 20
-136.33333333333331
 11
-8.6666666666666572
 21
-135.66666666666669
 72
1
 10
-8.6666666666666572
 20
-135.66666666666669
 11
-10.333333333333343
 21
-134.66666666666669
 72
1
 10
-10.333333333333343
 20
-134.66666666666669
 11
-12.0
 21
-134.0
 72
1
 10
-12.0
 20
-134.0
 11
-13.666666666666657
 21
-133.0
 72
1
 10
-13.666666666666657
 20
-133.0
 11
-15.0
 21
-132.0
 72
1
 10
-15.0
 20
-132.0
 11
-16.666666666666657
 21
-131.0
 72
1
 10
-16.666666666666657
 20
-131.0
 11
-18.0
 21
-129.66666666666669
 72
1
 10
-18.0
 20
-129.66666666666669
 11
-19.333333333333343
 21
-128.33333333333331
 72
1
 10
-19.333333333333343
 20
-128.33333333333331
 11
-20.333333333333343
 21
-127.66666666666669
 72
1
 10
-20.333333333333343
 20
-127.66666666666669
 11
-21.0
 21
-127.0
 72
1
 10
-21.0
 20
-127.0
 11
-21.666666666666657
 21
-126.33333333333331
 72
1
 10
-21.666666666666657
 20
-126.33333333333331
 11
-22.333333333333343
 21
-125.33333333333331
 72
1
 10
-22.333333333333343
 20
-125.33333333333331
 11
-23.333333333333343
 21
-124.0
 72
1
 10
-23.333333333333343
 20
-124.0
 11
-24.666666666666657
 21
-122.33333333333331
 72
1
 10
-24.666666666666657
 20
-122.33333333333331
 11
-25.666666666666657
 21
-120.66666666666669
 72
1
 10
-25.666666666666657
 20
-120.66666666666669
 11
-26.666666666666657
 21
-119.0
 72
1
 10
-26.666666666666657
 20
-119.0
 11
-27.333333333333343
 21
-117.33333333333331
 72
1
 10
-27.333333333333343
 20
-117.33333333333331
 11
-28.333333333333343
 21
-115.66666666666669
 72
1
 10
-28.333333333333343
 20
-115.66666666666669
 11
-29.0
 21
-113.66666666666669
 72
1
 10
-29.0
 20
-113.66666666666669
 11
-29.666666666666657
 21
-112.0
 72
1
 10
-29.666666666666657
 20
-112.0
 11
-29.666666666666657
 21
-111.0
 72
1
 10
-29.666666666666657
 20
-111.0
 11
-30.0
 21
-110.0
 72
1
 10
-30.0
 20
-110.0
 11
-30.333333333333343
 21
-109.0
 72
1
 10
-30.333333333333343
 20
-109.0
 11
-30.333333333333343
 21
-108.0
 72
1
 10
-30.333333333333343
 20
-108.0
 11
-30.666666666666657
 21
-107.0
 72
1
 10
-30.666666666666657
 20
-107.0
 11
-30.666666666666657
 21
-106.0
 72
1
 10
-30.666666666666657
 20
-106.0
 11
-31.0
 21
-105.0
 72
1
 10
-31.0
 20
-105.0
 11
-31.0
 21
-104.0
 72
1
 10
-31.0
 20
-104.0
 11
-31.0
 21
-103.0
 72
1
 10
-31.0
 20
-103.0
 11
-31.0
 21
-102.0
 72
1
 10
-31.0
 20
-102.0
 11
-31.0
 21
-100.66666666666669
 72
1
 10
-31.0
 20
-100.66666666666669
 11
-31.333333333333343
 21
-99.666666666666686
 72
1
 10
-31.333333333333343
 20
-99.666666666666686
 11
-31.0
 21
-98.333333333333314
 72
1
 10
-31.0
 20
-98.333333333333314
 11
-31.0
 21
-97.0
 72
1
 10
-31.0
 20
-97.0
 11
-31.0
 21
-95.666666666666686
 72
1
 10
-31.0
 20
-95.666666666666686
 11
-31.0
 21
-94.333333333333314
 72
1
 10
-31.0
 20
-94.333333333333314
 11
-30.666666666666657
 21
-93.0
 72
1
 10
-30.666666666666657
 20
-93.0
 11
-30.333333333333343
 21
-92.0
 72
1
 10
-30.333333333333343
 20
-92.0
 11
-30.333333333333343
 21
-90.666666666666686
 72
1
 10
-30.333333333333343
 20
-90.666666666666686
 11
-30.0
 21
-89.333333333333314
 72
1
 10
-30.0
 20
-89.333333333333314
 11
-29.666666666666657
 21
-88.0
 72
1
 10
-29.666666666666657
 20
-88.0
 11
-29.333333333333343
 21
-87.0
 72
1
 10
-29.333333333333343
 20
-87.0
 11
-29.0
 21
-85.666666666666686
 72
1
 10
-29.0
 20
-85.666666666666686
 11
-28.333333333333343
 21
-84.333333333333314
 72
1
 10
-28.333333333333343
 20
-84.333333333333314
 11
-28.0
 21
-83.333333333333314
 72
1
 10
-28.0
 20
-83.333333333333314
 11
-27.666666666666657
 21
-82.0
 72
1
 10
-27.666666666666657
 20
-82.0
 11
-27.0
 21
-81.0
 72
1
 10
-27.0
 20
-81.0
 11
-26.333333333333343
 21
-79.666666666666686
 72
1
 10
-26.333333333333343
 20
-79.666666666666686
 11
-25.666666666666657
 21
-78.666666666666686
 72
1
 10
-25.666666666666657
 20
-78.666666666666686
 11
-25.0
 21
-77.333333333333314
 72
1
 10
-25.0
 20
-77.333333333333314
 11
-24.333333333333343
 21
-76.0
 72
1
 10
-24.333333333333343
 20
-76.0
 11
-23.333333333333343
 21
-75.0
 72
1
 10
-23.333333333333343
 20
-75.0
 11
-22.666666666666657
 21
-74.0
 72
1
 10
-22.666666666666657
 20
-74.0
 11
-21.666666666666657
 21
-72.666666666666686
 72
1
 10
-21.666666666666657
 20
-72.666666666666686
 11
-20.666666666666657
 21
-71.666666666666686
 72
1
 10
-20.666666666666657
 20
-71.666666666666686
 11
-19.666666666666657
 21
-70.666666666666686
 72
1
 10
-19.666666666666657
 20
-70.666666666666686
 11
-18.666666666666657
 21
-69.666666666666686
 72
1
 10
-18.666666666666657
 20
-69.666666666666686
 11
-17.666666666666657
 21
-69.0
 72
1
 10
-17.666666666666657
 20
-69.0
 11
-16.666666666666657
 21
-68.0
 72
1
 10
-16.666666666666657
 20
-68.0
 11
-15.333333333333343
 21
-67.0
 72
1
 10
-15.333333333333343
 20
-67.0
 11
-14.333333333333343
 21
-66.333333333333314
 72
1
 10
-14.333333333333343
 20
-66.333333333333314
 11
-13.0
 21
-65.666666666666686
 72
1
 10
-13.0
 20
-65.666666666666686
 11
-11.666666666666657
 21
-64.666666666666686
 72
1
 10
-11.666666666666657
 20
-64.666666666666686
 11
-10.333333333333343
 21
-64.0
 72
1
 10
-10.333333333333343
 20
-64.0
 11
-9.3333333333333428
 21
-63.666666666666686
 72
1
 10
-9.3333333333333428
 20
-63.666666666666686
 11
-8.3333333333333428
 21
-63.0
 72
1
 10
-8.3333333333333428
 20
-63.0
 11
-7.3333333333333428
 21
-62.666666666666686
 72
1
 10
-7.3333333333333428
 20
-62.666666666666686
 11
-6.3333333333333428
 21
-62.333333333333314
 72
1
 10
-6.3333333333333428
 20
-62.333333333333314
 11
-5.0
 21
-62.0
 72
1
 10
-5.0
 20
-62.0
 11
-4.0
 21
-61.666666666666686
 72
1
 10
-4.0
 20
-61.666666666666686
 11
-3.0
 21
-61.333333333333314
 72
1
 10
-3.0
 20
-61.333333333333314
 11
-1.6666666666666572
 21
-61.0
 72
1
 10
-1.6666666666666572
 20
-61.0
 11
-0.6666666666666572
 21
-60.666666666666686
 72
1
 10
-0.6666666666666572
 20
-60.666666666666686
 11
0.3333333333333428
 21
-60.666666666666686
 72
1
 10
0.3333333333333428
 20
-60.666666666666686
 11
1.6666666666666572
 21
-60.333333333333314
 72
1
 10
1.6666666666666572
 20
-60.333333333333314
 11
2.6666666666666572
 21
-60.333333333333314
 72
1
 10
2.6666666666666572
 20
-60.333333333333314
 11
4.0
 21
-60.0
 72
1
 10
4.0
 20
-60.0
 11
5.3333333333333428
 21
-60.0
 72
1
 10
5.3333333333333428
 20
-60.0
 11
6.3333333333333428
 21
-60.0
 72
1
 10
6.3333333333333428
 20
-60.0
 11
7.6666666666666572
 21
-60.0
 72
1
 10
7.6666666666666572
 20
-60.0
 11
8.0
 21
-77.333333333333314
 97
0
 75
0
 76
1
 98
0
  0
HATCH
  5
52
  8
H
 62
0
370
-1
  6
CONTINUOUS
100
AcDbEntity
100
AcDbHatch
 10
0.0
 20
0.0
 30
0.0
210
0.0
220
0.0
230
1.0
  2
SOLID
 70
1
 71
0
 91
1
 92
1
 93
4
 72
1
 10
92.0
 20
178.66666666666666
 11
-3.0
 21
62.0
 72
1
 10
-3.0
 20
62.0
 11
-12.0
 21
69.666666666666657
 72
1
 10
-12.0
 20
69.666666666666657
 11
82.666666666666686
 21
186.0
 72
1
 10
82.666666666666686
 20
186.0
 11
92.0
 21
178.66666666666666
 97
0
 75
0
 76
1
 98
0
  0
HATCH
  5
53
  8
H
 62
0
370
-1
  6
CONTINUOUS
100
AcDbEntity
100
AcDbHatch
 10
0.0
 20
0.0
 30
0.0
210
0.0
220
0.0
230
1.0
  2
SOLID
 70
1
 71
0
 91
1
 92
1
 93
4
 72
1
 10
82.666666666666686
 20
185.66666666666666
 11
92.0
 21
178.0
 72
1
 10
92.0
 20
178.0
 11
-2.6666666666666572
 21
61.333333333333343
 72
1
 10
-2.6666666666666572
 20
61.333333333333343
 11
-12.0
 21
69.0
 72
1
 10
-12.0
 20
69.0
 11
82.666666666666686
 21
185.66666666666666
 97
0
 75
0
 76
1
 98
0
  0
HATCH
  5
54
  8
H
 62
0
370
-1
  6
CONTINUOUS
100
AcDbEntity
100
AcDbHatch
 10
0.0
 20
0.0
 30
0.0
210
0.0
220
0.0
230
1.0
  2
SOLID
 70
1
 71
0
 91
1
 92
1
 93
4
 72
1
 10
129.66666666666669
 20
185.66666666666666
 11
139.0
 21
178.0
 72
1
 10
139.0
 20
178.0
 11
-30.666666666666657
 21
-30.333333333333343
 72
1
 10
-30.666666666666657
 20
-30.333333333333343
 11
-40.0
 21
-22.666666666666657
 72
1
 10
-40.0
 20
-22.666666666666657
 11
129.66666666666669
 21
185.66666666666666
 97
0
 75
0
 76
1
 98
0
  0
HATCH
  5
55
  8
H
 62
0
370
-1
  6
CONTINUOUS
100
AcDbEntity
100
AcDbHatch
 10
0.0
 20
0.0
 30
0.0
210
0.0
220
0.0
230
1.0
  2
SOLID
 70
1
 71
0
 91
1
 92
1
 93
4
 72
1
 10
176.33333333333331
 20
185.66666666666666
 11
185.66666666666669
 21
178.0
 72
1
 10
185.66666666666669
 20
178.0
 11
55.0
 21
17.0
 72
1
 10
55.0
 20
17.0
 11
45.666666666666686
 21
24.333333333333343
 72
1
 10
45.666666666666686
 20
24.333333333333343
 11
176.33333333333331
 21
185.66666666666666
 97
0
 75
0
 76
1
 98
0
  0
HATCH
  5
56
  8
H
 62
253
370
-1
  6
CONTINUOUS
100
AcDbEntity
100
AcDbHatch
 10
0.0
 20
0.0
 30
0.0
210
0.0
220
0.0
230
1.0
  2
SOLID
 70
1
 71
0
 91
1
 92
1
 93
4
 72
1
 10
-22.0
 20
-42.666666666666657
 11
37.666666666666686
 21
-42.666666666666657
 72
1
 10
37.666666666666686
 20
-42.666666666666657
 11
37.666666666666686
 21
-54.333333333333343
 72
1
 10
37.666666666666686
 20
-54.333333333333343
 11
-22.0
 21
-54.333333333333343
 72
1
 10
-22.0
 20
-54.333333333333343
 11
-22.0
 21
-42.666666666666657
 97
0
 75
0
 76
1
 98
0
  0
HATCH
  5
57
  8
H
 62
253
370
-1
  6
CONTINUOUS
100
AcDbEntity
100
AcDbHatch
 10
0.0
 20
0.0
 30
0.0
210
0.0
220
0.0
230
1.0
  2
SOLID
 70
1
 71
0
 91
1
 92
1
 93
4
 72
1
 10
52.333333333333314
 20
-42.666666666666657
 11
205.66666666666669
 21
-42.666666666666657
 72
1
 10
205.66666666666669
 20
-42.666666666666657
 11
205.66666666666669
 21
-54.333333333333343
 72
1
 10
205.66666666666669
 20
-54.333333333333343
 11
52.333333333333314
 21
-54.333333333333343
 72
1
 10
52.333333333333314
 20
-54.333333333333343
 11
52.333333333333314
 21
-42.666666666666657
 97
0
 75
0
 76
1
 98
0
  0
HATCH
  5
58
  8
H
 62
253
370
-1
  6
CONTINUOUS
100
AcDbEntity
100
AcDbHatch
 10
0.0
 20
0.0
 30
0.0
210
0.0
220
0.0
230
1.0
  2
SOLID
 70
1
 71
0
 91
1
 92
1
 93
4
 72
1
 10
-51.0
 20
-42.666666666666657
 11
-36.666666666666657
 21
-42.666666666666657
 72
1
 10
-36.666666666666657
 20
-42.666666666666657
 11
-36.666666666666657
 21
-54.333333333333343
 72
1
 10
-36.666666666666657
 20
-54.333333333333343
 11
-51.0
 21
-54.333333333333343
 72
1
 10
-51.0
 20
-54.333333333333343
 11
-51.0
 21
-42.666666666666657
 97
0
 75
0
 76
1
 98
0
  0
HATCH
  5
59
  8
H
 62
253
370
-1
  6
CONTINUOUS
100
AcDbEntity
100
AcDbHatch
 10
0.0
 20
0.0
 30
0.0
210
0.0
220
0.0
230
1.0
  2
SOLID
 70
1
 71
0
 91
1
 92
1
 93
4
 72
1
 10
-220.66666666666666
 20
-42.666666666666657
 11
-161.0
 21
-42.666666666666657
 72
1
 10
-161.0
 20
-42.666666666666657
 11
-161.0
 21
-54.333333333333343
 72
1
 10
-161.0
 20
-54.333333333333343
 11
-220.66666666666666
 21
-54.333333333333343
 72
1
 10
-220.66666666666666
 20
-54.333333333333343
 11
-220.66666666666666
 21
-42.666666666666657
 97
0
 75
0
 76
1
 98
0
  0
ENDSEC
  0
SECTION
  2
OBJECTS
  0
DICTIONARY
  5
C
100
AcDbDictionary
280
0
281
1
  3
ACAD_GROUP
350
D
  3
ACAD_LAYOUT
350
1A
  3
ACAD_MLINESTYLE
350
17
  3
ACAD_PLOTSETTINGS
350
19
  3
ACAD_PLOTSTYLENAME
350
E
  3
AcDbVariableDictionary
350
5A
  0
DICTIONARY
  5
D
100
AcDbDictionary
280
0
281
1
  0
ACDBDICTIONARYWDFLT
  5
E
100
AcDbDictionary
281
1
  3
Normal
350
F
100
AcDbDictionaryWithDefault
340
F
  0
ACDBPLACEHOLDER
  5
F
  0
DICTIONARY
  5
17
100
AcDbDictionary
280
0
281
1
  3
Standard
350
18
  0
MLINESTYLE
  5
18
100
AcDbMlineStyle
  2
STANDARD
 70
0
  3

 62
256
 51
90.0
 52
90.0
 71
2
 49
0.5
 62
256
  6
BYLAYER
 49
-0.5
 62
256
  6
BYLAYER
  0
DICTIONARY
  5
19
100
AcDbDictionary
280
0
281
1
  0
DICTIONARY
  5
1A
100
AcDbDictionary
281
1
  3
Layout1
350
1E
  3
Layout2
350
26
  3
Model
350
22
  0
LAYOUT
  5
1E
100
AcDbPlotSettings
  1

  2
C:\Program Files\AutoCAD 2002\plotters\DWF ePlot (optimized for plotting).pc3
  4

  6

 40
0.0
 41
0.0
 42
0.0
 43
0.0
 44
0.0
 45
0.0
 46
0.0
 47
0.0
 48
0.0
 49
0.0
140
0.0
141
0.0
142
1.0
143
1.0
 70
688
 72
0
 73
0
 74
5
  7

 75
16
147
1.0
148
0.0
149
0.0
100
AcDbLayout
  1
Layout1
 70
1
 71
1
 10
0.0
 20
0.0
 11
420.0
 21
297.0
 12
0.0
 22
0.0
 32
0.0
 14
100000000000000000000.0
 24
100000000000000000000.0
 34
100000000000000000000.0
 15
-100000000000000000000.0
 25
-100000000000000000000.0
 35
-100000000000000000000.0
146
0.0
 13
0.0
 23
0.0
 33
0.0
 16
1.0
 26
0.0
 36
0.0
 17
0.0
 27
1.0
 37
0.0
 76
0
330
1B
  0
LAYOUT
  5
22
100
AcDbPlotSettings
  1

  2
C:\Program Files\AutoCAD 2002\plotters\DWF ePlot (optimized for plotting).pc3
  4

  6

 40
0.0
 41
0.0
 42
0.0
 43
0.0
 44
0.0
 45
0.0
 46
0.0
 47
0.0
 48
0.0
 49
0.0
140
0.0
141
0.0
142
1.0
143
1.0
 70
1712
 72
0
 73
0
 74
0
  7

 75
0
147
1.0
148
0.0
149
0.0
100
AcDbLayout
  1
Model
 70
1
 71
0
 10
0.0
 20
0.0
 11
12.0
 21
9.0
 12
0.0
 22
0.0
 32
0.0
 14
0.0
 24
0.0
 34
0.0
 15
0.0
 25
0.0
 35
0.0
146
0.0
 13
0.0
 23
0.0
 33
0.0
 16
1.0
 26
0.0
 36
0.0
 17
0.0
 27
1.0
 37
0.0
 76
0
330
1F
  0
LAYOUT
  5
26
100
AcDbPlotSettings
  1

  2
C:\Program Files\AutoCAD 2002\plotters\DWF ePlot (optimized for plotting).pc3
  4

  6

 40
0.0
 41
0.0
 42
0.0
 43
0.0
 44
0.0
 45
0.0
 46
0.0
 47
0.0
 48
0.0
 49
0.0
140
0.0
141
0.0
142
1.0
143
1.0
 70
688
 72
0
 73
0
 74
5
  7

 75
16
147
1.0
148
0.0
149
0.0
100
AcDbLayout
  1
Layout2
 70
1
 71
2
 10
0.0
 20
0.0
 11
12.0
 21
9.0
 12
0.0
 22
0.0
 32
0.0
 14
0.0
 24
0.0
 34
0.0
 15
0.0
 25
0.0
 35
0.0
146
0.0
 13
0.0
 23
0.0
 33
0.0
 16
1.0
 26
0.0
 36
0.0
 17
0.0
 27
1.0
 37
0.0
 76
0
330
23
  0
DICTIONARY
  5
5A
100
AcDbDictionary
281
1
  3
DIMASSOC
350
5C
  3
HIDETEXT
350
5B
  0
DICTIONARYVAR
  5
5B
100
DictionaryVariables
280
0
  1
2
  0
DICTIONARYVAR
  5
5C
100
DictionaryVariables
280
0
  1
1
  0
ENDSEC
  0
EOF
