  0
SECTION
  2
HEADER
  9
$ACADVER
  1
AC1015
  9
$ACADMAINTVER
 70
     6
  9
$DWGCODEPAGE
  3
DOS850
  9
$INSBASE
 10
0.0
 20
0.0
 30
0.0
  9
$EXTMIN
 10
-9.75985
 20
-6.51641
 30
1.000000E+20
  9
$EXTMAX
 10
9.20715
 20
9.77119
 30
-1.000000E+20
  9
$LIMMIN
 10
0.0
 20
0.0
  9
$LIMMAX
 10
0.0
 20
0.0
  9
$ORTHOMODE
 70
     0
  9
$REGENMODE
 70
     1
  9
$FILLMODE
 70
     1
  9
$QTEXTMODE
 70
     0
  9
$MIRRTEXT
 70
     1
  9
$LTSCALE
 40
1.0
  9
$ATTMODE
 70
     1
  9
$TEXTSIZE
 40
0.2
  9
$TRACEWID
 40
0.05
  9
$TEXTSTYLE
  7
Standard
  9
$CLAYER
  8
0
  9
$CELTYPE
  6
Continuous
  9
$CECOLOR
 62
   256
  9
$CELTSCALE
 40
1.0
  9
$DISPSILH
 70
     0
  9
$DIMSCALE
 40
1.0
  9
$DIMASZ
 40
0.18
  9
$DIMEXO
 40
0.0625
  9
$DIMDLI
 40
0.38
  9
$DIMRND
 40
0.0
  9
$DIMDLE
 40
0.0
  9
$DIMEXE
 40
0.18
  9
$DIMTP
 40
0.0
  9
$DIMTM
 40
0.0
  9
$DIMTXT
 40
0.18
  9
$DIMCEN
 40
0.09
  9
$DIMTSZ
 40
0.0
  9
$DIMTOL
 70
     0
  9
$DIMLIM
 70
     0
  9
$DIMTIH
 70
     1
  9
$DIMTOH
 70
     1
  9
$DIMSE1
 70
     0
  9
$DIMSE2
 70
     0
  9
$DIMTAD
 70
     0
  9
$DIMZIN
 70
     0
  9
$DIMBLK
  1

  9
$DIMASO
 70
     1
  9
$DIMSHO
 70
     1
  9
$DIMPOST
  1

  9
$DIMAPOST
  1

  9
$DIMALT
 70
     0
  9
$DIMALTD
 70
     2
  9
$DIMALTF
 40
25.4
  9
$DIMLFAC
 40
1.0
  9
$DIMTOFL
 70
     0
  9
$DIMTVP
 40
0.0
  9
$DIMTIX
 70
     0
  9
$DIMSOXD
 70
     0
  9
$DIMSAH
 70
     0
  9
$DIMBLK1
  1

  9
$DIMBLK2
  1

  9
$DIMSTYLE
  2
Standard
  9
$DIMCLRD
 70
     0
  9
$DIMCLRE
 70
     0
  9
$DIMCLRT
 70
     0
  9
$DIMTFAC
 40
1.0
  9
$DIMGAP
 40
0.09
  9
$DIMJUST
 70
     0
  9
$DIMSD1
 70
     0
  9
$DIMSD2
 70
     0
  9
$DIMTOLJ
 70
     1
  9
$DIMTZIN
 70
     0
  9
$DIMALTZ
 70
     0
  9
$DIMALTTZ
 70
     0
  9
$DIMUPT
 70
     0
  9
$DIMDEC
 70
     4
  9
$DIMTDEC
 70
     4
  9
$DIMALTU
 70
     2
  9
$DIMALTTD
 70
     2
  9
$DIMTXSTY
  7
Standard
  9
$DIMAUNIT
 70
     0
  9
$DIMADEC
 70
     0
  9
$DIMALTRND
 40
0.0
  9
$DIMAZIN
 70
     0
  9
$DIMDSEP
 70
     0
  9
$DIMATFIT
 70
     3
  9
$DIMFRAC
 70
     0
  9
$DIMLDRBLK
  1

  9
$DIMLUNIT
 70
     2
  9
$DIMLWD
 70
     0
  9
$DIMLWE
 70
     0
  9
$DIMTMOVE
 70
     0
  9
$LUNITS
 70
     2
  9
$LUPREC
 70
     4
  9
$SKETCHINC
 40
0.1
  9
$FILLETRAD
 40
0.0
  9
$AUNITS
 70
     0
  9
$AUPREC
 70
     0
  9
$MENU
  1
acad
  9
$ELEVATION
 40
0.0
  9
$PELEVATION
 40
0.0
  9
$THICKNESS
 40
0.0
  9
$LIMCHECK
 70
     0
  9
$CHAMFERA
 40
0.0
  9
$CHAMFERB
 40
0.0
  9
$CHAMFERC
 40
0.0
  9
$CHAMFERD
 40
0.0
  9
$SKPOLY
 70
     0
  9
$TDCREATE
 40
0.000000000
  9
$TDUCREATE
 40
0.000000000
  9
$TDUPDATE
 40
0.000000000
  9
$TDUUPDATE
 40
0.000000000
  9
$TDINDWG
 40
0.0000000000
  9
$TDUSRTIMER
 40
0.0000000000
  9
$USRTIMER
 70
     1
  9
$ANGBASE
 50
0.0
  9
$ANGDIR
 70
     0
  9
$PDMODE
 70
     0
  9
$PDSIZE
 40
0.0
  9
$PLINEWID
 40
0.0
  9
$SPLFRAME
 70
     0
  9
$SPLINETYPE
 70
     6
  9
$SPLINESEGS
 70
     8
  9
$HANDSEED
  5
35
  9
$SURFTAB1
 70
     6
  9
$SURFTAB2
 70
     6
  9
$SURFTYPE
 70
     6
  9
$SURFU
 70
     6
  9
$SURFV
 70
     6
  9
$UCSBASE
  2

  9
$UCSNAME
  2

  9
$UCSORG
 10
0.0
 20
0.0
 30
0.0
  9
$UCSXDIR
 10
1.0
 20
0.0
 30
0.0
  9
$UCSYDIR
 10
0.0
 20
1.0
 30
0.0
  9
$UCSORTHOREF
  2

  9
$UCSORTHOVIEW
 70
     0
  9
$UCSORGTOP
 10
0.0
 20
0.0
 30
0.0
  9
$UCSORGBOTTOM
 10
0.0
 20
0.0
 30
0.0
  9
$UCSORGLEFT
 10
0.0
 20
0.0
 30
0.0
  9
$UCSORGRIGHT
 10
0.0
 20
0.0
 30
0.0
  9
$UCSORGFRONT
 10
0.0
 20
0.0
 30
0.0
  9
$UCSORGBACK
 10
0.0
 20
0.0
 30
0.0
  9
$PUCSBASE
  2

  9
$PUCSNAME
  2

  9
$PUCSORG
 10
0.0
 20
0.0
 30
0.0
  9
$PUCSXDIR
 10
1.0
 20
0.0
 30
0.0
  9
$PUCSYDIR
 10
0.0
 20
1.0
 30
0.0
  9
$PUCSORTHOREF
  2

  9
$PUCSORTHOVIEW
 70
     0
  9
$PUCSORGTOP
 10
0.0
 20
0.0
 30
0.0
  9
$PUCSORGBOTTOM
 10
0.0
 20
0.0
 30
0.0
  9
$PUCSORGLEFT
 10
0.0
 20
0.0
 30
0.0
  9
$PUCSORGRIGHT
 10
0.0
 20
0.0
 30
0.0
  9
$PUCSORGFRONT
 10
0.0
 20
0.0
 30
0.0
  9
$PUCSORGBACK
 10
0.0
 20
0.0
 30
0.0
  9
$USERI1
 70
     0
  9
$USERI2
 70
     0
  9
$USERI3
 70
     0
  9
$USERI4
 70
     0
  9
$USERI5
 70
     0
  9
$USERR1
 40
0.0
  9
$USERR2
 40
0.0
  9
$USERR3
 40
0.0
  9
$USERR4
 40
0.0
  9
$USERR5
 40
0.0
  9
$WORLDVIEW
 70
     1
  9
$SHADEDGE
 70
     3
  9
$SHADEDIF
 70
    70
  9
$TILEMODE
 70
     1
  9
$MAXACTVP
 70
    16
  9
$PINSBASE
 10
0.0
 20
0.0
 30
0.0
  9
$PLIMCHECK
 70
     0
  9
$PEXTMIN
 10
1.000000E+20
 20
1.000000E+20
 30
1.000000E+20
  9
$PEXTMAX
 10
-1.000000E+20
 20
-1.000000E+20
 30
-1.000000E+20
  9
$PLIMMIN
 10
0.0
 20
0.0
  9
$PLIMMAX
 10
12.0
 20
9.0
  9
$UNITMODE
 70
     0
  9
$VISRETAIN
 70
     0
  9
$PLINEGEN
 70
     1
  9
$PSLTSCALE
 70
     0
  9
$TREEDEPTH
 70
  3020
  9
$CMLSTYLE
  2
Standard
  9
$CMLJUST
 70
     0
  9
$CMLSCALE
 40
1.0
  9
$PROXYGRAPHICS
 70
     0
  9
$MEASUREMENT
 70
     0
  9
$CELWEIGHT
370
     0
  9
$ENDCAPS
280
     0
  9
$JOINSTYLE
280
     0
  9
$LWDISPLAY
290
     0
  9
$INSUNITS
 70
     5
  9
$HYPERLINKBASE
  1

  9
$XEDIT
290
     1
  9
$CEPSNTYPE
380
     0
  9
$PSTYLEMODE
290
     1
  9
$FINGERPRINTGUID
  2

  9
$VERSIONGUID
  2

  9
$EXTNAMES
290
     1
  9
$PSVPSCALE
 40
0.0
  0
ENDSEC
  0
SECTION
  2
CLASSES
  0
CLASS
  1
LWPOLYLINE
  2
AcDbPolyline
  3
AutoCAD 2000
 90
        0
280
     0
281
     1
  0
CLASS
  1
IMAGE
  2
AcDbRasterImage
  3
ISM
 90
    32895
280
     0
281
     1
  0
CLASS
  1
OLE2FRAME
  2
AcDbOle2Frame
  3
AutoCAD 2000
 90
    32768
280
     0
281
     1
  0
CLASS
  1
HATCH
  2
AcDbHatch
  3
AutoCAD 2000
 90
    32768
280
     0
281
     1
  0
CLASS
  1
DICTIONARYVAR
  2
AcDbDictionaryVar
  3
AutoCAD 2000
 90
    32768
280
     0
281
     0
  0
CLASS
  1
RASTERVARIABLES
  2
AcDbRasterVariables
  3
ISM
 90
    32768
280
     0
281
     0
  0
CLASS
  1
IMAGEDEF
  2
AcDbRasterImageDef
  3
ISM
 90
    32768
280
     0
281
     0
  0
CLASS
  1
IMAGEDEF_REACTOR
  2
AcDbRasterImageDefReactor
  3
ISM
 90
    32769
280
     0
281
     0
  0
CLASS
  1
IDBUFFER
  2
AcDbIdBuffer
  3
AutoCAD 2000
 90
    32768
280
     0
281
     0
  0
CLASS
  1
SPATIAL_FILTER
  2
AcDbSpatialFilter
  3
AutoCAD 2000
 90
    32768
280
     0
281
     0
  0
CLASS
  1
XRECORD
  2
AcDbXrecord
  3
AutoCAD 2000
 90
    32768
280
     0
281
     0
  0
CLASS
  1
SORTENTSTABLE
  2
AcDbSortentsTable
  3
AutoCAD 2000
 90
    32768
280
     0
281
     0
  0
CLASS
  1
LAYER_INDEX
  2
AcDbLayerIndex
  3
AutoCAD 2000
 90
    32768
280
     0
281
     0
  0
CLASS
  1
SPATIAL_INDEX
  2
AcDbSpatialIndex
  3
AutoCAD 2000
 90
    32768
280
     0
281
     0
  0
CLASS
  1
OBJECT_PTR
  2
CAseDLPNTableRecord
  3
"ASE-LPNTableRecord"
 90
    32769
280
     0
281
     0
  0
CLASS
  1
LAYOUT
  2
AcDbLayout
  3
AutoCAD 2000
 90
        0
280
     0
281
     0
  0
CLASS
  1
PLOTSETTINGS
  2
AcDbPlotSettings
  3
AutoCAD 2000
 90
    32768
280
     0
281
     0
  0
CLASS
  1
ACDBDICTIONARYWDFLT
  2
AcDbDictionaryWithDefault
  3
AutoCAD 2000
 90
        0
280
     0
281
     0
  0
CLASS
  1
ACDBPLACEHOLDER
  2
AcDbPlaceHolder
  3
AutoCAD 2000
 90
        0
280
     0
281
     0
  0
CLASS
  1
VBA_PROJECT
  2
AcDbVbaProject
  3
acadvba
 90
    32768
280
     0
281
     0
  0
CLASS
  1
WIPEOUT
  2
AcDbWipeout
  3
WipeOut|AutoCAD Express Tool|expresstools@autodesk.com
 90
    32895
280
     0
281
     1
  0
CLASS
  1
WIPEOUTVARIABLES
  2
AcDbWipeoutVariables
  3
WipeOut|AutoCAD Express Tool|expresstools@autodesk.com
 90
        0
280
     0
281
     0
  0
CLASS
  1
RTEXT
  2
RText
  3
RText|AutoCAD Express Tool|expresstools@autodesk.com
 90
    32768
280
     0
281
     1
  0
CLASS
  1
ARCALIGNEDTEXT
  2
AcDbArcAlignedText
  3
ATEXT|AutoCAD Express Tool|expresstools@autodesk.com
 90
    32768
280
     0
281
     1
  0
ENDSEC
  0
SECTION
  2
TABLES
  0
TABLE
  2
VPORT
  5
7
100
AcDbSymbolTable
 70
     1
  0
VPORT
  5
15
100
AcDbSymbolTableRecord
100
AcDbViewportTableRecord
  2
*ACTIVE
 70
     0
 10
0.0
 20
0.0
 11
1.0
 21
1.0
 12
6.591288
 22
4.579184
 13
0.0
 23
0.0
 14
1.0
 24
1.0
 15
0.0
 25
0.0
 16
0.0
 26
0.0
 36
1.0
 17
0.0
 27
0.0
 37
0.0
 40
9.158369
 41
0.688564
 42
50.0
 43
0.0
 44
0.0
 50
0.0
 51
0.0
 71
     0
 72
   100
 73
     1
 74
     1
 75
     0
 76
     0
 77
     0
 78
     0
281
     0
 65
     0
110
0.0
120
0.0
130
0.0
111
1.0
121
0.0
131
0.0
112
0.0
122
1.0
132
0.0
345
0
346
0
 79
     0
146
0.0
  0
ENDTAB
  0
TABLE
  2
LTYPE
  5
4
100
AcDbSymbolTable
 70
     3
  0
LTYPE
  5
11
100
AcDbSymbolTableRecord
100
AcDbLinetypeTableRecord
  2
ByBlock
 70
    64
  3

 72
    65
 73
     0
 40
0.0
  0
LTYPE
  5
12
100
AcDbSymbolTableRecord
100
AcDbLinetypeTableRecord
  2
ByLayer
 70
    64
  3

 72
    65
 73
     0
 40
0.0
  0
LTYPE
  5
13
100
AcDbSymbolTableRecord
100
AcDbLinetypeTableRecord
  2
Continuous
 70
    64
  3
Solid line
 72
    65
 73
     0
 40
0.0
  0
ENDTAB
  0
TABLE
  2
LAYER
  5
2
100
AcDbSymbolTable
 70
     2
  0
LAYER
  5
14
100
AcDbSymbolTableRecord
100
AcDbLayerTableRecord
  2
0
 70
     0
 62
     7
  6
Continuous
290
     1
370
    -3
390
1D
  0
LAYER
  5
24
100
AcDbSymbolTableRecord
100
AcDbLayerTableRecord
  2
Vrstva 1
 70
     0
 62
     7
  6
Continuous
290
     1
370
    -3
390
1F
  0
ENDTAB
  0
TABLE
  2
STYLE
  5
3
100
AcDbSymbolTable
 70
     1
  0
STYLE
  5
17
100
AcDbSymbolTableRecord
100
AcDbTextStyleTableRecord
  2
Standard
 70
     0
 40
0.0
 41
1.0
 50
0.0
 71
     0
 42
0.0
  3
txt
  4

  0
ENDTAB
  0
TABLE
  2
VIEW
  5
5
100
AcDbSymbolTable
 70
     0
  0
ENDTAB
  0
TABLE
  2
UCS
  5
6
100
AcDbSymbolTable
 70
     0
  0
ENDTAB
  0
TABLE
  2
APPID
  5
8
100
AcDbSymbolTable
 70
     1
  0
APPID
  5
16
100
AcDbSymbolTableRecord
100
AcDbRegAppTableRecord
  2
ACAD
 70
     0
  0
ENDTAB
  0
TABLE
  2
DIMSTYLE
  5
9
100
AcDbSymbolTable
 70
     1
100
AcDbDimStyleTable
 71
     0
  0
DIMSTYLE
105
18
100
AcDbSymbolTableRecord
100
AcDbDimStyleTableRecord
  2
Standard
 70
     0
  3

  4

 40
1.0
 41
0.18
 42
0.0625
 43
0.38
 44
0.18
 45
0.0
 46
0.0
 47
0.0
 48
0.0
 71
     0
 72
     0
 73
     1
 74
     1
 75
     0
 76
     0
 77
     0
 78
     0
 79
     0
140
0.18
141
0.09
142
0.0
143
25.4
144
1.0
145
0.0
146
1.0
147
0.09
148
0.0
170
     0
171
     2
172
     0
173
     0
174
     0
175
     0
176
     0
177
     0
178
     0
179
     0
271
     4
272
     4
273
     2
274
     2
275
     0
276
     0
277
     2
278
    46
279
     0
280
     0
281
     0
282
     0
283
     1
284
     0
285
     0
286
     0
288
     0
340
17
341
0
342
0
343
0
344
0
371
    -2
372
    -2
  0
ENDTAB
  0
TABLE
  2
BLOCK_RECORD
  5
1
100
AcDbSymbolTable
 70
     0
  0
BLOCK_RECORD
  5
A
100
AcDbSymbolTableRecord
100
AcDbBlockTableRecord
  2
*MODEL_SPACE
340
20
  0
BLOCK_RECORD
  5
B
100
AcDbSymbolTableRecord
100
AcDbBlockTableRecord
  2
*PAPER_SPACE
340
21
  0
ENDTAB
  0
ENDSEC
  0
SECTION
  2
BLOCKS
  0
BLOCK
  5
D
100
AcDbEntity
  8
0
100
AcDbBlockBegin
  2
*MODEL_SPACE
 70
     0
 10
0.0
 20
0.0
 30
0.0
  3
*MODEL_SPACE
  1

  0
ENDBLK
  5
E
100
AcDbEntity
  8
0
100
AcDbBlockEnd
  0
BLOCK
  5
F
100
AcDbEntity
 67
     1
  8
0
100
AcDbBlockBegin
  2
*PAPER_SPACE
 70
     0
 10
0.0
 20
0.0
 30
0.0
  3
*PAPER_SPACE
  1

  0
ENDBLK
  5
10
100
AcDbEntity
 67
     1
  8
0
100
AcDbBlockEnd
  0
ENDSEC
  0
SECTION
  2
ENTITIES
  0
SPLINE
  5
25
100
AcDbEntity
  8
Vrstva 1
 62
     5
100
AcDbSpline
210
0.0
220
0.0
230
1.0
 70
     1
 71
     3
 72
    88
 73
    84
 74
     0
 42
0.0000000001
 43
0.0000000001
 40
0.0
 40
0.0
 40
0.0
 40
0.0
 40
0.0476190476190476
 40
0.0476190476190476
 40
0.0476190476190476
 40
0.0476190476190476
 40
0.0952380952380952
 40
0.0952380952380952
 40
0.0952380952380952
 40
0.0952380952380952
 40
0.1428571428571429
 40
0.1428571428571429
 40
0.1428571428571429
 40
0.1428571428571429
 40
0.1904761904761905
 40
0.1904761904761905
 40
0.1904761904761905
 40
0.1904761904761905
 40
0.2380952380952381
 40
0.2380952380952381
 40
0.2380952380952381
 40
0.2380952380952381
 40
0.2857142857142857
 40
0.2857142857142857
 40
0.2857142857142857
 40
0.2857142857142857
 40
0.3333333333333333
 40
0.3333333333333333
 40
0.3333333333333333
 40
0.3333333333333333
 40
0.3809523809523809
 40
0.3809523809523809
 40
0.3809523809523809
 40
0.3809523809523809
 40
0.4285714285714286
 40
0.4285714285714286
 40
0.4285714285714286
 40
0.4285714285714286
 40
0.4761904761904762
 40
0.4761904761904762
 40
0.4761904761904762
 40
0.4761904761904762
 40
0.5238095238095237
 40
0.5238095238095237
 40
0.5238095238095237
 40
0.5238095238095237
 40
0.5714285714285714
 40
0.5714285714285714
 40
0.5714285714285714
 40
0.5714285714285714
 40
0.6190476190476191
 40
0.6190476190476191
 40
0.6190476190476191
 40
0.6190476190476191
 40
0.6666666666666667
 40
0.6666666666666667
 40
0.6666666666666667
 40
0.6666666666666667
 40
0.7142857142857144
 40
0.7142857142857144
 40
0.7142857142857144
 40
0.7142857142857144
 40
0.7619047619047621
 40
0.7619047619047621
 40
0.7619047619047621
 40
0.7619047619047621
 40
0.8095238095238098
 40
0.8095238095238098
 40
0.8095238095238098
 40
0.8095238095238098
 40
0.8571428571428574
 40
0.8571428571428574
 40
0.8571428571428574
 40
0.8571428571428574
 40
0.9047619047619051
 40
0.9047619047619051
 40
0.9047619047619051
 40
0.9047619047619051
 40
0.9523809523809528
 40
0.9523809523809528
 40
0.9523809523809528
 40
0.9523809523809528
 40
1.0
 40
1.0
 40
1.0
 40
1.0
 10
-4.1811300000000005
 20
-3.6814000000000004
 30
0.0
 10
-4.1758600000000001
 20
-3.4987700000000004
 30
0.0
 10
-4.2343299999999999
 20
-3.3114700000000004
 30
0.0
 10
-4.3407100000000005
 20
-3.1201000000000003
 30
0.0
 10
-4.3407100000000005
 20
-3.1201000000000003
 30
0.0
 10
-4.4469400000000006
 20
-2.9308400000000003
 30
0.0
 10
-4.6362100000000002
 20
-2.6778400000000002
 30
0.0
 10
-4.9106100000000001
 20
-2.3674200000000001
 30
0.0
 10
-4.9106100000000001
 20
-2.3674200000000001
 30
0.0
 10
-5.4655800000000001
 20
-1.7315300000000002
 30
0.0
 10
-5.8504300000000002
 20
-1.2808300000000001
 30
0.0
 10
-6.0588300000000004
 20
-1.01291
 30
0.0
 10
-6.0588300000000004
 20
-1.01291
 30
0.0
 10
-6.2693400000000006
 20
-0.74499
 30
0.0
 10
-6.4372100000000003
 20
-0.48972
 30
0.0
 10
-6.5669500000000003
 20
-0.24953
 30
0.0
 10
-6.5669500000000003
 20
-0.24953
 30
0.0
 10
-6.8625900000000009
 20
0.27787
 30
0.0
 10
-7.0092100000000004
 20
0.8051200000000001
 30
0.0
 10
-7.0092100000000004
 20
1.3325200000000001
 30
0.0
 10
-7.0092100000000004
 20
1.3325200000000001
 30
0.0
 10
-7.0092100000000004
 20
1.8768000000000002
 30
0.0
 10
-6.8731400000000002
 20
2.3871700000000002
 30
0.0
 10
-6.5988900000000008
 20
2.8656000000000001
 30
0.0
 10
-6.5988900000000008
 20
2.8656000000000001
 30
0.0
 10
-6.0588300000000004
 20
3.8075400000000004
 30
0.0
 10
-5.0891700000000002
 20
4.2796400000000006
 30
0.0
 10
-3.6879400000000002
 20
4.2796400000000006
 30
0.0
 10
-3.6879400000000002
 20
4.2796400000000006
 30
0.0
 10
-3.6879400000000002
 20
4.2796400000000006
 30
0.0
 10
-1.3340700000000001
 20
4.2796400000000006
 30
0.0
 10
-1.3340700000000001
 20
4.2796400000000006
 30
0.0
 10
-1.3340700000000001
 20
4.2796400000000006
 30
0.0
 10
-1.3340700000000001
 20
4.2796400000000006
 30
0.0
 10
-1.3340700000000001
 20
2.2361900000000001
 30
0.0
 10
-1.3340700000000001
 20
2.2361900000000001
 30
0.0
 10
-1.3340700000000001
 20
2.2361900000000001
 30
0.0
 10
-1.3340700000000001
 20
2.2361900000000001
 30
0.0
 10
-3.4200200000000001
 20
2.2361900000000001
 30
0.0
 10
-3.4200200000000001
 20
2.2361900000000001
 30
0.0
 10
-3.4200200000000001
 20
2.2361900000000001
 30
0.0
 10
-3.8558000000000003
 20
2.2361900000000001
 30
0.0
 10
-4.1696800000000005
 20
2.1263400000000003
 30
0.0
 10
-4.3556300000000006
 20
1.9066400000000001
 30
0.0
 10
-4.3556300000000006
 20
1.9066400000000001
 30
0.0
 10
-4.6942200000000005
 20
1.5067200000000001
 30
0.0
 10
-4.3360400000000006
 20
0.9097000000000001
 30
0.0
 10
-4.1065400000000007
 20
0.5655300000000001
 30
0.0
 10
-4.1065400000000007
 20
0.5655300000000001
 30
0.0
 10
-3.9364200000000005
 20
0.31042
 30
0.0
 10
-3.7144600000000003
 20
0.08273
 30
0.0
 10
-3.0271800000000004
 20
-0.7052000000000001
 30
0.0
 10
-3.0271800000000004
 20
-0.7052000000000001
 30
0.0
 10
-2.4419200000000001
 20
-1.3762100000000002
 30
0.0
 10
-2.1025700000000001
 20
-1.9724700000000002
 30
0.0
 10
-1.9274700000000002
 20
-2.3155900000000003
 30
0.0
 10
-1.9274700000000002
 20
-2.3155900000000003
 30
0.0
 10
-1.7679000000000002
 20
-2.62826
 30
0.0
 10
-1.6532300000000002
 20
-3.1628900000000004
 30
0.0
 10
-1.6532300000000002
 20
-3.4366900000000005
 30
0.0
 10
-1.6532300000000002
 20
-3.4366900000000005
 30
0.0
 10
-1.6532300000000002
 20
-3.6318300000000003
 30
0.0
 10
-1.6957200000000001
 20
-4.0270800000000007
 30
0.0
 10
-1.7531300000000001
 20
-4.3631100000000007
 30
0.0
 10
-1.7531300000000001
 20
-4.3631100000000007
 30
0.0
 10
-2.10046
 20
-5.64846
 30
0.0
 10
-3.16717
 20
-6.5073700000000008
 30
0.0
 10
-4.7118500000000001
 20
-6.5106900000000003
 30
0.0
 10
-4.7118500000000001
 20
-6.5106900000000003
 30
0.0
 10
-4.7118500000000001
 20
-6.5106900000000003
 30
0.0
 10
-7.3252000000000006
 20
-6.5164100000000005
 30
0.0
 10
-7.3252000000000006
 20
-6.5164100000000005
 30
0.0
 10
-7.3252000000000006
 20
-6.5164100000000005
 30
0.0
 10
-7.3252000000000006
 20
-6.5164100000000005
 30
0.0
 10
-7.3252000000000006
 20
-4.4729600000000005
 30
0.0
 10
-7.3252000000000006
 20
-4.4729600000000005
 30
0.0
 10
-7.3252000000000006
 20
-4.4729600000000005
 30
0.0
 10
-7.3252000000000006
 20
-4.4729600000000005
 30
0.0
 10
-5.1642100000000006
 20
-4.4717500000000001
 30
0.0
 10
-5.1642100000000006
 20
-4.4717500000000001
 30
0.0
 10
-5.1642100000000006
 20
-4.4717500000000001
 30
0.0
 10
-4.8396300000000005
 20
-4.46678
 30
0.0
 10
-4.2011799999999999
 20
-4.3640100000000004
 30
0.0
 10
-4.1811300000000005
 20
-3.6814000000000004
 30
0.0
  0
SPLINE
  5
26
100
AcDbEntity
  8
Vrstva 1
 62
   251
100
AcDbSpline
210
0.0
220
0.0
230
1.0
 70
     1
 71
     3
 72
   100
 73
    96
 74
     0
 42
0.0000000001
 43
0.0000000001
 40
0.0
 40
0.0
 40
0.0
 40
0.0
 40
0.0416666666666667
 40
0.0416666666666667
 40
0.0416666666666667
 40
0.0416666666666667
 40
0.0833333333333333
 40
0.0833333333333333
 40
0.0833333333333333
 40
0.0833333333333333
 40
0.125
 40
0.125
 40
0.125
 40
0.125
 40
0.1666666666666667
 40
0.1666666666666667
 40
0.1666666666666667
 40
0.1666666666666667
 40
0.2083333333333333
 40
0.2083333333333333
 40
0.2083333333333333
 40
0.2083333333333333
 40
0.25
 40
0.25
 40
0.25
 40
0.25
 40
0.2916666666666666
 40
0.2916666666666666
 40
0.2916666666666666
 40
0.2916666666666666
 40
0.3333333333333333
 40
0.3333333333333333
 40
0.3333333333333333
 40
0.3333333333333333
 40
0.375
 40
0.375
 40
0.375
 40
0.375
 40
0.4166666666666667
 40
0.4166666666666667
 40
0.4166666666666667
 40
0.4166666666666667
 40
0.4583333333333334
 40
0.4583333333333334
 40
0.4583333333333334
 40
0.4583333333333334
 40
0.5
 40
0.5
 40
0.5
 40
0.5
 40
0.5416666666666666
 40
0.5416666666666666
 40
0.5416666666666666
 40
0.5416666666666666
 40
0.5833333333333333
 40
0.5833333333333333
 40
0.5833333333333333
 40
0.5833333333333333
 40
0.6249999999999999
 40
0.6249999999999999
 40
0.6249999999999999
 40
0.6249999999999999
 40
0.6666666666666665
 40
0.6666666666666665
 40
0.6666666666666665
 40
0.6666666666666665
 40
0.7083333333333332
 40
0.7083333333333332
 40
0.7083333333333332
 40
0.7083333333333332
 40
0.7499999999999998
 40
0.7499999999999998
 40
0.7499999999999998
 40
0.7499999999999998
 40
0.7916666666666664
 40
0.7916666666666664
 40
0.7916666666666664
 40
0.7916666666666664
 40
0.833333333333333
 40
0.833333333333333
 40
0.833333333333333
 40
0.833333333333333
 40
0.8749999999999997
 40
0.8749999999999997
 40
0.8749999999999997
 40
0.8749999999999997
 40
0.9166666666666663
 40
0.9166666666666663
 40
0.9166666666666663
 40
0.9166666666666663
 40
0.9583333333333329
 40
0.9583333333333329
 40
0.9583333333333329
 40
0.9583333333333329
 40
1.0
 40
1.0
 40
1.0
 40
1.0
 10
7.0068000000000001
 20
-1.31176
 30
0.0
 10
7.0068000000000001
 20
-1.31176
 30
0.0
 10
8.0616099999999999
 20
-1.31176
 30
0.0
 10
8.0616099999999999
 20
-1.31176
 30
0.0
 10
8.0616099999999999
 20
-1.31176
 30
0.0
 10
8.3747300000000013
 20
-1.31176
 30
0.0
 10
8.5985900000000015
 20
-1.3402700000000001
 30
0.0
 10
8.734020000000001
 20
-1.3971900000000002
 30
0.0
 10
8.734020000000001
 20
-1.3971900000000002
 30
0.0
 10
8.9279000000000011
 20
-1.4787600000000001
 30
0.0
 10
9.063270000000001
 20
-1.6148900000000002
 30
0.0
 10
9.1417800000000007
 20
-1.8057200000000002
 30
0.0
 10
9.1417800000000007
 20
-1.8057200000000002
 30
0.0
 10
9.1856200000000001
 20
-1.9103400000000001
 30
0.0
 10
9.2071500000000004
 20
-2.02189
 30
0.0
 10
9.2071500000000004
 20
-2.1388400000000001
 30
0.0
 10
9.2071500000000004
 20
-2.1388400000000001
 30
0.0
 10
9.2071500000000004
 20
-2.3527300000000002
 30
0.0
 10
9.1463600000000014
 20
-2.5273600000000003
 30
0.0
 10
9.0248300000000015
 20
-2.6643100000000004
 30
0.0
 10
9.0248300000000015
 20
-2.6643100000000004
 30
0.0
 10
8.9686800000000009
 20
-2.7273900000000002
 30
0.0
 10
8.9078900000000001
 20
-2.7758600000000002
 30
0.0
 10
8.8409400000000016
 20
-2.8097200000000004
 30
0.0
 10
8.8409400000000016
 20
-2.8097200000000004
 30
0.0
 10
8.7740400000000012
 20
-2.8435800000000002
 30
0.0
 10
8.6801500000000011
 20
-2.8735700000000004
 30
0.0
 10
8.5601500000000001
 20
-2.9005000000000001
 30
0.0
 10
8.5601500000000001
 20
-2.9005000000000001
 30
0.0
 10
8.6563300000000005
 20
-2.9220300000000003
 30
0.0
 10
8.7301500000000001
 20
-2.9451000000000001
 30
0.0
 10
8.7817300000000014
 20
-2.9720300000000002
 30
0.0
 10
8.7817300000000014
 20
-2.9720300000000002
 30
0.0
 10
8.834010000000001
 20
-2.9982000000000002
 30
0.0
 10
8.8809500000000003
 20
-3.0359300000000005
 30
0.0
 10
8.9232600000000009
 20
-3.0859200000000002
 30
0.0
 10
8.9232600000000009
 20
-3.0859200000000002
 30
0.0
 10
9.0194400000000012
 20
-3.1982400000000002
 30
0.0
 10
9.0679100000000012
 20
-3.3613600000000003
 30
0.0
 10
9.0694300000000005
 20
-3.5744300000000004
 30
0.0
 10
9.0694300000000005
 20
-3.5744300000000004
 30
0.0
 10
9.0694300000000005
 20
-3.5744300000000004
 30
0.0
 10
9.0694300000000005
 20
-4.3884300000000005
 30
0.0
 10
9.0694300000000005
 20
-4.3884300000000005
 30
0.0
 10
9.0694300000000005
 20
-4.3884300000000005
 30
0.0
 10
9.0694300000000005
 20
-4.3884300000000005
 30
0.0
 10
8.2262700000000013
 20
-4.3884300000000005
 30
0.0
 10
8.2262700000000013
 20
-4.3884300000000005
 30
0.0
 10
8.2262700000000013
 20
-4.3884300000000005
 30
0.0
 10
8.2262700000000013
 20
-4.3884300000000005
 30
0.0
 10
8.2262700000000013
 20
-3.6652600000000004
 30
0.0
 10
8.2262700000000013
 20
-3.6652600000000004
 30
0.0
 10
8.2262700000000013
 20
-3.6652600000000004
 30
0.0
 10
8.2262700000000013
 20
-3.5013700000000001
 30
0.0
 10
8.1908300000000001
 20
-3.3882400000000001
 30
0.0
 10
8.1193000000000008
 20
-3.3267400000000005
 30
0.0
 10
8.1193000000000008
 20
-3.3267400000000005
 30
0.0
 10
8.0477600000000002
 20
-3.2651900000000005
 30
0.0
 10
7.9162000000000008
 20
-3.2343900000000003
 30
0.0
 10
7.7238500000000005
 20
-3.2343900000000003
 30
0.0
 10
7.7238500000000005
 20
-3.2343900000000003
 30
0.0
 10
7.7238500000000005
 20
-3.2343900000000003
 30
0.0
 10
7.0068000000000001
 20
-3.2343900000000003
 30
0.0
 10
7.0068000000000001
 20
-3.2343900000000003
 30
0.0
 10
7.0068000000000001
 20
-3.2343900000000003
 30
0.0
 10
7.0068000000000001
 20
-3.2343900000000003
 30
0.0
 10
7.0068000000000001
 20
-2.4950300000000003
 30
0.0
 10
7.0068000000000001
 20
-2.4950300000000003
 30
0.0
 10
7.0068000000000001
 20
-2.4950300000000003
 30
0.0
 10
7.0068000000000001
 20
-2.4950300000000003
 30
0.0
 10
8.0031100000000013
 20
-2.4950300000000003
 30
0.0
 10
8.0031100000000013
 20
-2.4950300000000003
 30
0.0
 10
8.0031100000000013
 20
-2.4950300000000003
 30
0.0
 10
8.1447000000000003
 20
-2.4950300000000003
 30
0.0
 10
8.2362400000000004
 20
-2.4696700000000003
 30
0.0
 10
8.278550000000001
 20
-2.4181000000000004
 30
0.0
 10
8.278550000000001
 20
-2.4181000000000004
 30
0.0
 10
8.3131700000000013
 20
-2.3765500000000004
 30
0.0
 10
8.3301300000000005
 20
-2.3273200000000003
 30
0.0
 10
8.3301300000000005
 20
-2.2719300000000002
 30
0.0
 10
8.3301300000000005
 20
-2.2719300000000002
 30
0.0
 10
8.3301300000000005
 20
-2.19652
 30
0.0
 10
8.3062500000000004
 20
-2.14113
 30
0.0
 10
8.259310000000001
 20
-2.1049800000000003
 30
0.0
 10
8.259310000000001
 20
-2.1049800000000003
 30
0.0
 10
8.2116000000000007
 20
-2.0688400000000002
 30
0.0
 10
8.1370100000000001
 20
-2.0511200000000001
 30
0.0
 10
8.0346799999999998
 20
-2.0511200000000001
 30
0.0
 10
8.0346799999999998
 20
-2.0511200000000001
 30
0.0
 10
8.0346799999999998
 20
-2.0511200000000001
 30
0.0
 10
7.0068000000000001
 20
-2.0511200000000001
 30
0.0
 10
7.0068000000000001
 20
-2.0511200000000001
 30
0.0
 10
7.0068000000000001
 20
-2.0511200000000001
 30
0.0
 10
7.0068000000000001
 20
-2.0511200000000001
 30
0.0
 10
7.0068000000000001
 20
-1.31176
 30
0.0
 10
7.0068000000000001
 20
-1.31176
 30
0.0
  0
SPLINE
  5
27
100
AcDbEntity
  8
Vrstva 1
 62
   251
100
AcDbSpline
210
0.0
220
0.0
230
1.0
 70
     1
 71
     3
 72
    20
 73
    16
 74
     0
 42
0.0000000001
 43
0.0000000001
 40
0.0
 40
0.0
 40
0.0
 40
0.0
 40
0.25
 40
0.25
 40
0.25
 40
0.25
 40
0.5
 40
0.5
 40
0.5
 40
0.5
 40
0.75
 40
0.75
 40
0.75
 40
0.75
 40
1.0
 40
1.0
 40
1.0
 40
1.0
 10
6.7298300000000006
 20
-1.31176
 30
0.0
 10
6.7298300000000006
 20
-1.31176
 30
0.0
 10
6.7298300000000006
 20
-2.0511200000000001
 30
0.0
 10
6.7298300000000006
 20
-2.0511200000000001
 30
0.0
 10
6.7298300000000006
 20
-2.0511200000000001
 30
0.0
 10
6.7298300000000006
 20
-2.0511200000000001
 30
0.0
 10
4.6579800000000002
 20
-2.0511200000000001
 30
0.0
 10
4.6579800000000002
 20
-2.0511200000000001
 30
0.0
 10
4.6579800000000002
 20
-2.0511200000000001
 30
0.0
 10
4.6579800000000002
 20
-2.0511200000000001
 30
0.0
 10
4.6579800000000002
 20
-1.31176
 30
0.0
 10
4.6579800000000002
 20
-1.31176
 30
0.0
 10
4.6579800000000002
 20
-1.31176
 30
0.0
 10
4.6579800000000002
 20
-1.31176
 30
0.0
 10
6.7298300000000006
 20
-1.31176
 30
0.0
 10
6.7298300000000006
 20
-1.31176
 30
0.0
  0
SPLINE
  5
28
100
AcDbEntity
  8
Vrstva 1
 62
   251
100
AcDbSpline
210
0.0
220
0.0
230
1.0
 70
     1
 71
     3
 72
    36
 73
    32
 74
     0
 42
0.0000000001
 43
0.0000000001
 40
0.0
 40
0.0
 40
0.0
 40
0.0
 40
0.125
 40
0.125
 40
0.125
 40
0.125
 40
0.25
 40
0.25
 40
0.25
 40
0.25
 40
0.375
 40
0.375
 40
0.375
 40
0.375
 40
0.5
 40
0.5
 40
0.5
 40
0.5
 40
0.625
 40
0.625
 40
0.625
 40
0.625
 40
0.75
 40
0.75
 40
0.75
 40
0.75
 40
0.875
 40
0.875
 40
0.875
 40
0.875
 40
1.0
 40
1.0
 40
1.0
 40
1.0
 10
6.7298300000000006
 20
-2.4950300000000003
 30
0.0
 10
6.7298300000000006
 20
-2.4950300000000003
 30
0.0
 10
6.7298300000000006
 20
-3.2343900000000003
 30
0.0
 10
6.7298300000000006
 20
-3.2343900000000003
 30
0.0
 10
6.7298300000000006
 20
-3.2343900000000003
 30
0.0
 10
6.7298300000000006
 20
-3.2343900000000003
 30
0.0
 10
5.5034900000000002
 20
-3.2343900000000003
 30
0.0
 10
5.5034900000000002
 20
-3.2343900000000003
 30
0.0
 10
5.5034900000000002
 20
-3.2343900000000003
 30
0.0
 10
5.5034900000000002
 20
-3.2343900000000003
 30
0.0
 10
5.5034900000000002
 20
-3.6490700000000005
 30
0.0
 10
5.5034900000000002
 20
-3.6490700000000005
 30
0.0
 10
5.5034900000000002
 20
-3.6490700000000005
 30
0.0
 10
5.5034900000000002
 20
-3.6490700000000005
 30
0.0
 10
6.7298300000000006
 20
-3.6490700000000005
 30
0.0
 10
6.7298300000000006
 20
-3.6490700000000005
 30
0.0
 10
6.7298300000000006
 20
-3.6490700000000005
 30
0.0
 10
6.7298300000000006
 20
-3.6490700000000005
 30
0.0
 10
6.7298300000000006
 20
-4.3884300000000005
 30
0.0
 10
6.7298300000000006
 20
-4.3884300000000005
 30
0.0
 10
6.7298300000000006
 20
-4.3884300000000005
 30
0.0
 10
6.7298300000000006
 20
-4.3884300000000005
 30
0.0
 10
4.6579800000000002
 20
-4.3884300000000005
 30
0.0
 10
4.6579800000000002
 20
-4.3884300000000005
 30
0.0
 10
4.6579800000000002
 20
-4.3884300000000005
 30
0.0
 10
4.6579800000000002
 20
-4.3884300000000005
 30
0.0
 10
4.6579800000000002
 20
-2.4950300000000003
 30
0.0
 10
4.6579800000000002
 20
-2.4950300000000003
 30
0.0
 10
4.6579800000000002
 20
-2.4950300000000003
 30
0.0
 10
4.6579800000000002
 20
-2.4950300000000003
 30
0.0
 10
6.7298300000000006
 20
-2.4950300000000003
 30
0.0
 10
6.7298300000000006
 20
-2.4950300000000003
 30
0.0
  0
SPLINE
  5
29
100
AcDbEntity
  8
Vrstva 1
 62
   251
100
AcDbSpline
210
0.0
220
0.0
230
1.0
 70
     1
 71
     3
 72
    20
 73
    16
 74
     0
 42
0.0000000001
 43
0.0000000001
 40
0.0
 40
0.0
 40
0.0
 40
0.0
 40
0.25
 40
0.25
 40
0.25
 40
0.25
 40
0.5
 40
0.5
 40
0.5
 40
0.5
 40
0.75
 40
0.75
 40
0.75
 40
0.75
 40
1.0
 40
1.0
 40
1.0
 40
1.0
 10
4.3825400000000005
 20
-1.31176
 30
0.0
 10
4.3825400000000005
 20
-1.31176
 30
0.0
 10
4.3825400000000005
 20
-2.0511200000000001
 30
0.0
 10
4.3825400000000005
 20
-2.0511200000000001
 30
0.0
 10
4.3825400000000005
 20
-2.0511200000000001
 30
0.0
 10
4.3825400000000005
 20
-2.0511200000000001
 30
0.0
 10
2.3045300000000002
 20
-2.0511200000000001
 30
0.0
 10
2.3045300000000002
 20
-2.0511200000000001
 30
0.0
 10
2.3045300000000002
 20
-2.0511200000000001
 30
0.0
 10
2.3045300000000002
 20
-2.0511200000000001
 30
0.0
 10
2.3045300000000002
 20
-1.31176
 30
0.0
 10
2.3045300000000002
 20
-1.31176
 30
0.0
 10
2.3045300000000002
 20
-1.31176
 30
0.0
 10
2.3045300000000002
 20
-1.31176
 30
0.0
 10
4.3825400000000005
 20
-1.31176
 30
0.0
 10
4.3825400000000005
 20
-1.31176
 30
0.0
  0
SPLINE
  5
2A
100
AcDbEntity
  8
Vrstva 1
 62
   251
100
AcDbSpline
210
0.0
220
0.0
230
1.0
 70
     1
 71
     3
 72
    28
 73
    24
 74
     0
 42
0.0000000001
 43
0.0000000001
 40
0.0
 40
0.0
 40
0.0
 40
0.0
 40
0.1666666666666667
 40
0.1666666666666667
 40
0.1666666666666667
 40
0.1666666666666667
 40
0.3333333333333333
 40
0.3333333333333333
 40
0.3333333333333333
 40
0.3333333333333333
 40
0.5
 40
0.5
 40
0.5
 40
0.5
 40
0.6666666666666666
 40
0.6666666666666666
 40
0.6666666666666666
 40
0.6666666666666666
 40
0.8333333333333333
 40
0.8333333333333333
 40
0.8333333333333333
 40
0.8333333333333333
 40
1.0
 40
1.0
 40
1.0
 40
1.0
 10
4.3825400000000005
 20
-2.4950300000000003
 30
0.0
 10
4.3825400000000005
 20
-2.4950300000000003
 30
0.0
 10
4.3825400000000005
 20
-3.2343900000000003
 30
0.0
 10
4.3825400000000005
 20
-3.2343900000000003
 30
0.0
 10
4.3825400000000005
 20
-3.2343900000000003
 30
0.0
 10
4.3825400000000005
 20
-3.2343900000000003
 30
0.0
 10
3.1500400000000002
 20
-3.2343900000000003
 30
0.0
 10
3.1500400000000002
 20
-3.2343900000000003
 30
0.0
 10
3.1500400000000002
 20
-3.2343900000000003
 30
0.0
 10
3.1500400000000002
 20
-3.2343900000000003
 30
0.0
 10
3.1500400000000002
 20
-4.3884300000000005
 30
0.0
 10
3.1500400000000002
 20
-4.3884300000000005
 30
0.0
 10
3.1500400000000002
 20
-4.3884300000000005
 30
0.0
 10
3.1500400000000002
 20
-4.3884300000000005
 30
0.0
 10
2.3045300000000002
 20
-4.3884300000000005
 30
0.0
 10
2.3045300000000002
 20
-4.3884300000000005
 30
0.0
 10
2.3045300000000002
 20
-4.3884300000000005
 30
0.0
 10
2.3045300000000002
 20
-4.3884300000000005
 30
0.0
 10
2.3045300000000002
 20
-2.4950300000000003
 30
0.0
 10
2.3045300000000002
 20
-2.4950300000000003
 30
0.0
 10
2.3045300000000002
 20
-2.4950300000000003
 30
0.0
 10
2.3045300000000002
 20
-2.4950300000000003
 30
0.0
 10
4.3825400000000005
 20
-2.4950300000000003
 30
0.0
 10
4.3825400000000005
 20
-2.4950300000000003
 30
0.0
  0
SPLINE
  5
2B
100
AcDbEntity
  8
Vrstva 1
 62
   251
100
AcDbSpline
210
0.0
220
0.0
230
1.0
 70
     1
 71
     3
 72
    36
 73
    32
 74
     0
 42
0.0000000001
 43
0.0000000001
 40
0.0
 40
0.0
 40
0.0
 40
0.0
 40
0.125
 40
0.125
 40
0.125
 40
0.125
 40
0.25
 40
0.25
 40
0.25
 40
0.25
 40
0.375
 40
0.375
 40
0.375
 40
0.375
 40
0.5
 40
0.5
 40
0.5
 40
0.5
 40
0.625
 40
0.625
 40
0.625
 40
0.625
 40
0.75
 40
0.75
 40
0.75
 40
0.75
 40
0.875
 40
0.875
 40
0.875
 40
0.875
 40
1.0
 40
1.0
 40
1.0
 40
1.0
 10
0.33216
 20
-1.8729200000000001
 30
0.0
 10
0.07903
 20
-1.8729200000000001
 30
0.0
 10
-0.11433
 20
-1.9653900000000002
 30
0.0
 10
-0.24887
 20
-2.1512500000000001
 30
0.0
 10
-0.24887
 20
-2.1512500000000001
 30
0.0
 10
-0.37246
 20
-2.3219000000000003
 30
0.0
 10
-0.4338300000000001
 20
-2.5514900000000003
 30
0.0
 10
-0.4338300000000001
 20
-2.8382200000000002
 30
0.0
 10
-0.4338300000000001
 20
-2.8382200000000002
 30
0.0
 10
-0.4338300000000001
 20
-3.1409200000000004
 30
0.0
 10
-0.3623900000000001
 20
-3.3847500000000004
 30
0.0
 10
-0.21944
 20
-3.5697100000000002
 30
0.0
 10
-0.21944
 20
-3.5697100000000002
 30
0.0
 10
-0.08995
 20
-3.7370300000000003
 30
0.0
 10
0.0984
 20
-3.8211700000000004
 30
0.0
 10
0.3439
 20
-3.8211700000000004
 30
0.0
 10
0.3439
 20
-3.8211700000000004
 30
0.0
 10
0.6104900000000001
 20
-3.8211700000000004
 30
0.0
 10
0.80891
 20
-3.7202300000000004
 30
0.0
 10
0.9400600000000001
 20
-3.5184100000000003
 30
0.0
 10
0.9400600000000001
 20
-3.5184100000000003
 30
0.0
 10
1.0535800000000002
 20
-3.3426900000000002
 30
0.0
 10
1.10995
 20
-3.1232300000000004
 30
0.0
 10
1.10995
 20
-2.8609300000000002
 30
0.0
 10
1.10995
 20
-2.8609300000000002
 30
0.0
 10
1.10995
 20
-2.5405300000000004
 30
0.0
 10
1.03427
 20
-2.2924700000000002
 30
0.0
 10
0.88375
 20
-2.1167400000000001
 30
0.0
 10
0.88375
 20
-2.1167400000000001
 30
0.0
 10
0.74921
 20
-1.9578300000000002
 30
0.0
 10
0.56508
 20
-1.8762500000000002
 30
0.0
 10
0.33216
 20
-1.8729200000000001
 30
0.0
  0
SPLINE
  5
2C
100
AcDbEntity
  8
Vrstva 1
 62
   251
100
AcDbSpline
210
0.0
220
0.0
230
1.0
 70
     1
 71
     3
 72
    44
 73
    40
 74
     0
 42
0.0000000001
 43
0.0000000001
 40
0.0
 40
0.0
 40
0.0
 40
0.0
 40
0.1
 40
0.1
 40
0.1
 40
0.1
 40
0.2
 40
0.2
 40
0.2
 40
0.2
 40
0.3
 40
0.3
 40
0.3
 40
0.3
 40
0.4
 40
0.4
 40
0.4
 40
0.4
 40
0.5
 40
0.5
 40
0.5
 40
0.5
 40
0.6
 40
0.6
 40
0.6
 40
0.6
 40
0.7
 40
0.7
 40
0.7
 40
0.7
 40
0.7999999999999999
 40
0.7999999999999999
 40
0.7999999999999999
 40
0.7999999999999999
 40
0.8999999999999999
 40
0.8999999999999999
 40
0.8999999999999999
 40
0.8999999999999999
 40
1.0
 40
1.0
 40
1.0
 40
1.0
 10
0.3270900000000001
 20
-1.0993600000000001
 30
0.0
 10
0.6247900000000001
 20
-1.0993600000000001
 30
0.0
 10
0.9030600000000001
 20
-1.1632400000000001
 30
0.0
 10
1.16459
 20
-1.29105
 30
0.0
 10
1.16459
 20
-1.29105
 30
0.0
 10
1.5177600000000002
 20
-1.46594
 30
0.0
 10
1.7708200000000001
 20
-1.7299700000000002
 30
0.0
 10
1.9230100000000001
 20
-2.0848100000000001
 30
0.0
 10
1.9230100000000001
 20
-2.0848100000000001
 30
0.0
 10
2.01972
 20
-2.3110000000000004
 30
0.0
 10
2.06846
 20
-2.5708000000000002
 30
0.0
 10
2.06846
 20
-2.8634300000000001
 30
0.0
 10
2.06846
 20
-2.8634300000000001
 30
0.0
 10
2.06846
 20
-3.3603800000000001
 30
0.0
 10
1.9087100000000001
 20
-3.7740300000000002
 30
0.0
 10
1.5883700000000001
 20
-4.1045000000000007
 30
0.0
 10
1.5883700000000001
 20
-4.1045000000000007
 30
0.0
 10
1.2713700000000001
 20
-4.4315800000000003
 30
0.0
 10
0.86272
 20
-4.5947200000000006
 30
0.0
 10
0.36159
 20
-4.5947200000000006
 30
0.0
 10
0.36159
 20
-4.5947200000000006
 30
0.0
 10
-0.13786
 20
-4.5947200000000006
 30
0.0
 10
-0.54991
 20
-4.4383100000000004
 30
0.0
 10
-0.87531
 20
-4.1263700000000005
 30
0.0
 10
-0.87531
 20
-4.1263700000000005
 30
0.0
 10
-1.2200200000000001
 20
-3.7950700000000004
 30
0.0
 10
-1.3924000000000001
 20
-3.3729600000000004
 30
0.0
 10
-1.3924000000000001
 20
-2.8609300000000002
 30
0.0
 10
-1.3924000000000001
 20
-2.8609300000000002
 30
0.0
 10
-1.3924000000000001
 20
-2.5439200000000004
 30
0.0
 10
-1.32179
 20
-2.2504600000000003
 30
0.0
 10
-1.1805100000000002
 20
-1.9813600000000002
 30
0.0
 10
-1.1805100000000002
 20
-1.9813600000000002
 30
0.0
 10
-1.0232600000000001
 20
-1.67866
 30
0.0
 10
-0.787
 20
-1.4474600000000002
 30
0.0
 10
-0.4734
 20
-1.2868200000000001
 30
0.0
 10
-0.4734
 20
-1.2868200000000001
 30
0.0
 10
-0.23707
 20
-1.1666300000000001
 30
0.0
 10
0.03029
 20
-1.10436
 30
0.0
 10
0.3270900000000001
 20
-1.0993600000000001
 30
0.0
  0
SPLINE
  5
2D
100
AcDbEntity
  8
Vrstva 1
370
    53
 62
     5
100
AcDbSpline
210
0.0
220
0.0
230
1.0
 70
     0
 71
     3
 72
     8
 73
     4
 74
     0
 42
0.0000000001
 43
0.0000000001
 40
0.0
 40
0.0
 40
0.0
 40
0.0
 40
1.0
 40
1.0
 40
1.0
 40
1.0
 10
-0.34631
 20
4.4527800000000006
 30
0.0
 10
-0.34631
 20
4.4527800000000006
 30
0.0
 10
3.8435900000000003
 20
9.6040200000000002
 30
0.0
 10
3.8435900000000003
 20
9.6040200000000002
 30
0.0
  0
SPLINE
  5
2E
100
AcDbEntity
  8
Vrstva 1
 62
     5
100
AcDbSpline
210
0.0
220
0.0
230
1.0
 70
     1
 71
     3
 72
    20
 73
    16
 74
     0
 42
0.0000000001
 43
0.0000000001
 40
0.0
 40
0.0
 40
0.0
 40
0.0
 40
0.25
 40
0.25
 40
0.25
 40
0.25
 40
0.5
 40
0.5
 40
0.5
 40
0.5
 40
0.75
 40
0.75
 40
0.75
 40
0.75
 40
1.0
 40
1.0
 40
1.0
 40
1.0
 10
3.6438500000000005
 20
9.7515900000000002
 30
0.0
 10
3.6438500000000005
 20
9.7515900000000002
 30
0.0
 10
4.0563700000000003
 20
9.4169499999999999
 30
0.0
 10
4.0563700000000003
 20
9.4169499999999999
 30
0.0
 10
4.0563700000000003
 20
9.4169499999999999
 30
0.0
 10
4.0563700000000003
 20
9.4169499999999999
 30
0.0
 10
-0.12659
 20
4.2604500000000005
 30
0.0
 10
-0.12659
 20
4.2604500000000005
 30
0.0
 10
-0.12659
 20
4.2604500000000005
 30
0.0
 10
-0.12659
 20
4.2604500000000005
 30
0.0
 10
-0.5391100000000001
 20
4.5950900000000008
 30
0.0
 10
-0.5391100000000001
 20
4.5950900000000008
 30
0.0
 10
-0.5391100000000001
 20
4.5950900000000008
 30
0.0
 10
-0.5391100000000001
 20
4.5950900000000008
 30
0.0
 10
3.6438500000000005
 20
9.7515900000000002
 30
0.0
 10
3.6438500000000005
 20
9.7515900000000002
 30
0.0
  0
SPLINE
  5
2F
100
AcDbEntity
  8
Vrstva 1
 62
     5
100
AcDbSpline
210
0.0
220
0.0
230
1.0
 70
     1
 71
     3
 72
    20
 73
    16
 74
     0
 42
0.0000000001
 43
0.0000000001
 40
0.0
 40
0.0
 40
0.0
 40
0.0
 40
0.25
 40
0.25
 40
0.25
 40
0.25
 40
0.5
 40
0.5
 40
0.5
 40
0.5
 40
0.75
 40
0.75
 40
0.75
 40
0.75
 40
1.0
 40
1.0
 40
1.0
 40
1.0
 10
5.7106100000000009
 20
9.7515600000000013
 30
0.0
 10
5.7106100000000009
 20
9.7515600000000013
 30
0.0
 10
6.1231000000000009
 20
9.4169400000000003
 30
0.0
 10
6.1231000000000009
 20
9.4169400000000003
 30
0.0
 10
6.1231000000000009
 20
9.4169400000000003
 30
0.0
 10
6.1231000000000009
 20
9.4169400000000003
 30
0.0
 10
-1.36287
 20
0.20697
 30
0.0
 10
-1.36287
 20
0.20697
 30
0.0
 10
-1.36287
 20
0.20697
 30
0.0
 10
-1.36287
 20
0.20697
 30
0.0
 10
-1.7754200000000002
 20
0.54159
 30
0.0
 10
-1.7754200000000002
 20
0.54159
 30
0.0
 10
-1.7754200000000002
 20
0.54159
 30
0.0
 10
-1.7754200000000002
 20
0.54159
 30
0.0
 10
5.7106100000000009
 20
9.7515600000000013
 30
0.0
 10
5.7106100000000009
 20
9.7515600000000013
 30
0.0
  0
SPLINE
  5
30
100
AcDbEntity
  8
Vrstva 1
 62
     5
100
AcDbSpline
210
0.0
220
0.0
230
1.0
 70
     1
 71
     3
 72
    20
 73
    16
 74
     0
 42
0.0000000001
 43
0.0000000001
 40
0.0
 40
0.0
 40
0.0
 40
0.0
 40
0.25
 40
0.25
 40
0.25
 40
0.25
 40
0.5
 40
0.5
 40
0.5
 40
0.5
 40
0.75
 40
0.75
 40
0.75
 40
0.75
 40
1.0
 40
1.0
 40
1.0
 40
1.0
 10
7.7708900000000005
 20
9.7515600000000013
 30
0.0
 10
7.7708900000000005
 20
9.7515600000000013
 30
0.0
 10
8.1833800000000014
 20
9.4169400000000003
 30
0.0
 10
8.1833800000000014
 20
9.4169400000000003
 30
0.0
 10
8.1833800000000014
 20
9.4169400000000003
 30
0.0
 10
8.1833800000000014
 20
9.4169400000000003
 30
0.0
 10
2.4167100000000001
 20
2.2903600000000002
 30
0.0
 10
2.4167100000000001
 20
2.2903600000000002
 30
0.0
 10
2.4167100000000001
 20
2.2903600000000002
 30
0.0
 10
2.4167100000000001
 20
2.2903600000000002
 30
0.0
 10
2.0041500000000001
 20
2.6249700000000002
 30
0.0
 10
2.0041500000000001
 20
2.6249700000000002
 30
0.0
 10
2.0041500000000001
 20
2.6249700000000002
 30
0.0
 10
2.0041500000000001
 20
2.6249700000000002
 30
0.0
 10
7.7708900000000005
 20
9.7515600000000013
 30
0.0
 10
7.7708900000000005
 20
9.7515600000000013
 30
0.0
  0
LWPOLYLINE
  5
31
100
AcDbEntity
  8
Vrstva 1
 62
   253
100
AcDbPolyline
 90
        5
 70
     1
 10
-0.98257
 20
-0.8518
 10
1.65115
 20
-0.8518
 10
1.65115
 20
-0.34474
 10
-0.98257
 20
-0.34474
 10
-0.98257
 20
-0.8518
  0
LWPOLYLINE
  5
32
100
AcDbEntity
  8
Vrstva 1
 62
   253
100
AcDbPolyline
 90
        5
 70
     1
 10
2.30144
 20
-0.85061
 10
9.07024
 20
-0.85061
 10
9.07024
 20
-0.34355
 10
2.30144
 20
-0.34355
 10
2.30144
 20
-0.85061
  0
LWPOLYLINE
  5
33
100
AcDbEntity
  8
Vrstva 1
 62
   253
100
AcDbPolyline
 90
        5
 70
     1
 10
-2.2696
 20
-0.85061
 10
-1.63474
 20
-0.85061
 10
-1.63474
 20
-0.34355
 10
-2.2696
 20
-0.34355
 10
-2.2696
 20
-0.85061
  0
LWPOLYLINE
  5
34
100
AcDbEntity
  8
Vrstva 1
 62
   253
100
AcDbPolyline
 90
        5
 70
     1
 10
-9.75985
 20
-0.8518
 10
-7.12613
 20
-0.8518
 10
-7.12613
 20
-0.34474
 10
-9.75985
 20
-0.34474
 10
-9.75985
 20
-0.8518
  0
ENDSEC
  0
SECTION
  2
OBJECTS
  0
DICTIONARY
  5
19
100
AcDbDictionary
280
     0
281
     1
  3
ACAD_GROUP
350
1A
  3
ACAD_MLINESTYLE
350
1B
  3
ACAD_LAYOUT
350
1E
  3
ACAD_PLOTSETTINGS
350
22
  3
ACAD_PLOTSTYLENAME
350
1F
  3
ACAD_WIPEOUT_VARS
350
23
  0
DICTIONARY
  5
1A
102
{ACAD_REACTORS
330
19
102
}
100
AcDbDictionary
280
     0
281
     1
  0
DICTIONARY
  5
1B
102
{ACAD_REACTORS
330
19
102
}
100
AcDbDictionary
280
     0
281
     1
  3
Standard
350
1C
  0
MLINESTYLE
  5
1C
102
{ACAD_REACTORS
330
1B
102
}
100
AcDbMlineStyle
  2
Standard
 70
     0
  3

 62
     0
 51
90.0
 52
90.0
 71
     2
 49
0.5
 62
   256
  6
BYLAYER
 49
-0.5
 62
   256
  6
BYLAYER
  0
ACDBDICTIONARYWDFLT
  5
1F
102
{ACAD_REACTORS
330
19
102
}
100
AcDbDictionary
281
     1
  3
Normal
350
1D
100
AcDbDictionaryWithDefault
340
1D
  0
ACDBPLACEHOLDER
  5
1D
102
{ACAD_REACTORS
330
1F
102
}
  0
LAYOUT
  5
20
102
{ACAD_REACTORS
330
1E
102
}
100
AcDbPlotSettings
  1

  2

  4

  6

 40
0.0
 41
0.0
 42
0.0
 43
0.0
 44
0.0
 45
0.0
 46
0.0
 47
0.0
 48
0.0
 49
0.0
140
0.0
141
0.0
142
1.0
143
1.0
 70
  1024
 72
     0
 73
     0
 74
     0
  7

 75
     0
147
1.0
148
0.0
149
0.0
100
AcDbLayout
  1
Model
 70
     0
 71
     0
 10
0.0
 20
0.0
 11
0.0
 21
0.0
 12
0.0
 22
0.0
 32
0.0
 14
0.0
 24
0.0
 34
0.0
 15
0.0
 25
0.0
 35
0.0
146
0.0
 13
0.0
 23
0.0
 33
0.0
 16
0.0
 26
0.0
 36
0.0
 17
0.0
 27
0.0
 37
0.0
 76
     0
330
A
331
0
345
0
346
0
  0
LAYOUT
  5
21
102
{ACAD_REACTORS
330
1E
102
}
100
AcDbPlotSettings
  1

  2

  4

  6

 40
0.0
 41
0.0
 42
0.0
 43
0.0
 44
0.0
 45
0.0
 46
0.0
 47
0.0
 48
0.0
 49
0.0
140
0.0
141
0.0
142
1.0
143
1.0
 70
     0
 72
     0
 73
     0
 74
     0
  7

 75
     0
147
1.0
148
0.0
149
0.0
100
AcDbLayout
  1
Layout1
 70
     0
 71
     0
 10
0.0
 20
0.0
 11
0.0
 21
0.0
 12
0.0
 22
0.0
 32
0.0
 14
0.0
 24
0.0
 34
0.0
 15
0.0
 25
0.0
 35
0.0
146
0.0
 13
0.0
 23
0.0
 33
0.0
 16
0.0
 26
0.0
 36
0.0
 17
0.0
 27
0.0
 37
0.0
 76
     0
330
B
331
0
345
0
346
0
  0
DICTIONARY
  5
1E
102
{ACAD_REACTORS
330
19
102
}
100
AcDbDictionary
280
     0
281
     1
  3
Layout1
350
21
  3
Model
350
20
  0
DICTIONARY
  5
22
102
{ACAD_REACTORS
330
19
102
}
100
AcDbDictionary
280
     0
281
     1
  0
WIPEOUTVARIABLES
  5
23
100
AcDbWipeoutVariables
 70
     1
  0
ENDSEC
  0
EOF
